%TF.GenerationSoftware,KiCad,Pcbnew,7.0.9*%
%TF.CreationDate,2023-11-27T10:59:27+01:00*%
%TF.ProjectId,SplitErgoLL_v2,53706c69-7445-4726-976f-4c4c5f76322e,rev?*%
%TF.SameCoordinates,Original*%
%TF.FileFunction,Profile,NP*%
%FSLAX46Y46*%
G04 Gerber Fmt 4.6, Leading zero omitted, Abs format (unit mm)*
G04 Created by KiCad (PCBNEW 7.0.9) date 2023-11-27 10:59:27*
%MOMM*%
%LPD*%
G01*
G04 APERTURE LIST*
%TA.AperFunction,Profile*%
%ADD10C,0.100000*%
%TD*%
G04 APERTURE END LIST*
D10*
X68000000Y-133000000D02*
X68000000Y-146880386D01*
X68000000Y-95000000D02*
X68000000Y-123500000D01*
X68000000Y-79500000D02*
X68000000Y-85500000D01*
X349000000Y-133000000D02*
X349000000Y-146880386D01*
X349000000Y-95000000D02*
X349000000Y-123500000D01*
X349000000Y-85500000D02*
X349000000Y-79560660D01*
X360000000Y-123500000D02*
X360000000Y-133000000D01*
X360000000Y-85500000D02*
X360000000Y-95000000D01*
X57000000Y-85500000D02*
X57000000Y-95000000D01*
X57000000Y-123500000D02*
X57000000Y-133000000D01*
X64500000Y-128500000D02*
G75*
G03*
X64500000Y-128500000I-3000000J0D01*
G01*
X67500000Y-127500000D02*
G75*
G03*
X67500000Y-127500000I-500000J0D01*
G01*
X67500000Y-130500000D02*
G75*
G03*
X67500000Y-130500000I-500000J0D01*
G01*
X67500000Y-126000000D02*
G75*
G03*
X67500000Y-126000000I-500000J0D01*
G01*
X67500000Y-124500000D02*
G75*
G03*
X67500000Y-124500000I-500000J0D01*
G01*
X67500000Y-129000000D02*
G75*
G03*
X67500000Y-129000000I-500000J0D01*
G01*
X67500000Y-132000000D02*
G75*
G03*
X67500000Y-132000000I-500000J0D01*
G01*
X57000000Y-133000000D02*
X68000000Y-133000000D01*
X57000000Y-123500000D02*
X68000000Y-123500000D01*
X358500000Y-128500000D02*
G75*
G03*
X358500000Y-128500000I-3000000J0D01*
G01*
X349000000Y-133000000D02*
X360000000Y-133000000D01*
X350500000Y-126000000D02*
G75*
G03*
X350500000Y-126000000I-500000J0D01*
G01*
X350500000Y-127500000D02*
G75*
G03*
X350500000Y-127500000I-500000J0D01*
G01*
X350500000Y-130500000D02*
G75*
G03*
X350500000Y-130500000I-500000J0D01*
G01*
X350500000Y-132000000D02*
G75*
G03*
X350500000Y-132000000I-500000J0D01*
G01*
X349000000Y-123500000D02*
X360000000Y-123500000D01*
X350500000Y-129000000D02*
G75*
G03*
X350500000Y-129000000I-500000J0D01*
G01*
X350500000Y-124500000D02*
G75*
G03*
X350500000Y-124500000I-500000J0D01*
G01*
X358500000Y-90500000D02*
G75*
G03*
X358500000Y-90500000I-3000000J0D01*
G01*
X349000000Y-95000000D02*
X360000000Y-95000000D01*
X350500000Y-88000000D02*
G75*
G03*
X350500000Y-88000000I-500000J0D01*
G01*
X350500000Y-89500000D02*
G75*
G03*
X350500000Y-89500000I-500000J0D01*
G01*
X350500000Y-92500000D02*
G75*
G03*
X350500000Y-92500000I-500000J0D01*
G01*
X350500000Y-94000000D02*
G75*
G03*
X350500000Y-94000000I-500000J0D01*
G01*
X349000000Y-85500000D02*
X360000000Y-85500000D01*
X350500000Y-91000000D02*
G75*
G03*
X350500000Y-91000000I-500000J0D01*
G01*
X350500000Y-86500000D02*
G75*
G03*
X350500000Y-86500000I-500000J0D01*
G01*
X64500000Y-90500000D02*
G75*
G03*
X64500000Y-90500000I-3000000J0D01*
G01*
X67500000Y-89500000D02*
G75*
G03*
X67500000Y-89500000I-500000J0D01*
G01*
X67500000Y-92500000D02*
G75*
G03*
X67500000Y-92500000I-500000J0D01*
G01*
X67500000Y-88000000D02*
G75*
G03*
X67500000Y-88000000I-500000J0D01*
G01*
X67500000Y-86500000D02*
G75*
G03*
X67500000Y-86500000I-500000J0D01*
G01*
X67500000Y-91000000D02*
G75*
G03*
X67500000Y-91000000I-500000J0D01*
G01*
X67500000Y-94000000D02*
G75*
G03*
X67500000Y-94000000I-500000J0D01*
G01*
X57000000Y-95000000D02*
X68000000Y-95000000D01*
X57000000Y-85500000D02*
X68000000Y-85500000D01*
X211500000Y-103000000D02*
G75*
G03*
X211500000Y-103000000I-3000000J0D01*
G01*
X211500000Y-122000000D02*
G75*
G03*
X211500000Y-122000000I-3000000J0D01*
G01*
X214500000Y-104000000D02*
G75*
G03*
X214500000Y-104000000I-500000J0D01*
G01*
X214500000Y-102500000D02*
G75*
G03*
X214500000Y-102500000I-500000J0D01*
G01*
X214500000Y-101000000D02*
G75*
G03*
X214500000Y-101000000I-500000J0D01*
G01*
X214500000Y-99500000D02*
G75*
G03*
X214500000Y-99500000I-500000J0D01*
G01*
X214500000Y-119500000D02*
G75*
G03*
X214500000Y-119500000I-500000J0D01*
G01*
X214500000Y-121000000D02*
G75*
G03*
X214500000Y-121000000I-500000J0D01*
G01*
X214500000Y-124000000D02*
G75*
G03*
X214500000Y-124000000I-500000J0D01*
G01*
X214500000Y-105500000D02*
G75*
G03*
X214500000Y-105500000I-500000J0D01*
G01*
X214500000Y-125500000D02*
G75*
G03*
X214500000Y-125500000I-500000J0D01*
G01*
X214500000Y-122500000D02*
G75*
G03*
X214500000Y-122500000I-500000J0D01*
G01*
X214500000Y-107000000D02*
G75*
G03*
X214500000Y-107000000I-500000J0D01*
G01*
X214500000Y-118000000D02*
G75*
G03*
X214500000Y-118000000I-500000J0D01*
G01*
X215000000Y-130500000D02*
G75*
G03*
X216500000Y-132000000I1500000J0D01*
G01*
X163000000Y-140500000D02*
G75*
G03*
X164500000Y-142000000I1500000J0D01*
G01*
X330000000Y-74500000D02*
G75*
G03*
X328500000Y-73000000I-1500000J0D01*
G01*
X145000000Y-66500000D02*
X145000000Y-61500000D01*
X254500000Y-68000000D02*
X270500000Y-68000000D01*
X254500000Y-68000000D02*
G75*
G03*
X253000000Y-69500000I0J-1500000D01*
G01*
X311000000Y-69500000D02*
G75*
G03*
X309500000Y-68000000I-1500000J0D01*
G01*
X203500000Y-118000000D02*
G75*
G03*
X203500000Y-118000000I-500000J0D01*
G01*
X232500000Y-93000000D02*
G75*
G03*
X234000000Y-91500000I0J1500000D01*
G01*
X203500000Y-107000000D02*
G75*
G03*
X203500000Y-107000000I-500000J0D01*
G01*
X123500000Y-68000000D02*
X107500000Y-68000000D01*
X235500000Y-84000000D02*
X251500000Y-84000000D01*
X106879586Y-152227538D02*
X125372858Y-149022038D01*
X203500000Y-122500000D02*
G75*
G03*
X203500000Y-122500000I-500000J0D01*
G01*
X311000000Y-71500000D02*
G75*
G03*
X312500000Y-73000000I1500000J0D01*
G01*
X146500000Y-126000000D02*
G75*
G03*
X145000000Y-127500000I0J-1500000D01*
G01*
X215000000Y-94500000D02*
X215000000Y-98500000D01*
X253000000Y-82500000D02*
X253000000Y-69500000D01*
X145000000Y-66500000D02*
G75*
G03*
X146500000Y-68000000I1500000J0D01*
G01*
X234000000Y-140500000D02*
X234000000Y-133500000D01*
X273500000Y-60000000D02*
X290500000Y-60000000D01*
X349754661Y-148182104D02*
X353900616Y-150555998D01*
X202000000Y-117000000D02*
X215000000Y-117000000D01*
X143500000Y-60000000D02*
X126500000Y-60000000D01*
X63099378Y-150555987D02*
G75*
G03*
X62541671Y-152600718I745322J-1301713D01*
G01*
X164000000Y-82500000D02*
G75*
G03*
X165500000Y-84000000I1500000J0D01*
G01*
X202000000Y-117000000D02*
X202000000Y-108000000D01*
X203500000Y-104000000D02*
G75*
G03*
X203500000Y-104000000I-500000J0D01*
G01*
X104500000Y-73000000D02*
G75*
G03*
X106000000Y-71500000I0J1500000D01*
G01*
X202000000Y-94500000D02*
G75*
G03*
X200500000Y-93000000I-1500000J0D01*
G01*
X273500000Y-60000000D02*
G75*
G03*
X272000000Y-61500000I0J-1500000D01*
G01*
X164000000Y-82500000D02*
X164000000Y-69500000D01*
X88500000Y-73000000D02*
G75*
G03*
X87000000Y-74500000I0J-1500000D01*
G01*
X215000000Y-126500000D02*
X215000000Y-130500000D01*
X216500000Y-93000000D02*
X232500000Y-93000000D01*
X184500000Y-132000000D02*
G75*
G03*
X183000000Y-133500000I0J-1500000D01*
G01*
X203500000Y-124000000D02*
G75*
G03*
X203500000Y-124000000I-500000J0D01*
G01*
X200500000Y-93000000D02*
X184500000Y-93000000D01*
X234000000Y-133500000D02*
G75*
G03*
X232500000Y-132000000I-1500000J0D01*
G01*
X181500000Y-142000000D02*
G75*
G03*
X183000000Y-140500000I0J1500000D01*
G01*
X203500000Y-105500000D02*
G75*
G03*
X203500000Y-105500000I-500000J0D01*
G01*
X126500000Y-60000000D02*
G75*
G03*
X125000000Y-61500000I0J-1500000D01*
G01*
X215000000Y-117000000D02*
X215000000Y-108000000D01*
X329999940Y-76560660D02*
G75*
G03*
X331500000Y-78060660I1500060J60D01*
G01*
X272000000Y-147500000D02*
X272000000Y-127500000D01*
X85500000Y-78000000D02*
G75*
G03*
X87000000Y-76500000I0J1500000D01*
G01*
X203500000Y-125500000D02*
G75*
G03*
X203500000Y-125500000I-500000J0D01*
G01*
X235500000Y-84000000D02*
G75*
G03*
X234000000Y-85500000I0J-1500000D01*
G01*
X164000000Y-69500000D02*
G75*
G03*
X162500000Y-68000000I-1500000J0D01*
G01*
X183000000Y-91500000D02*
X183000000Y-85500000D01*
X104500000Y-73000000D02*
X88500000Y-73000000D01*
X183000000Y-91500000D02*
G75*
G03*
X184500000Y-93000000I1500000J0D01*
G01*
X183000000Y-140500000D02*
X183000000Y-133500000D01*
X106000000Y-69500000D02*
X106000000Y-71500000D01*
X343939520Y-167979129D02*
X328367128Y-158818899D01*
X62541670Y-152600718D02*
X70996896Y-167429230D01*
X270500000Y-126000000D02*
X255500000Y-126000000D01*
X234000000Y-140500000D02*
G75*
G03*
X235500000Y-142000000I1500000J0D01*
G01*
X270500000Y-68000000D02*
G75*
G03*
X272000000Y-66500000I0J1500000D01*
G01*
X181500000Y-84000000D02*
X165500000Y-84000000D01*
X252500000Y-142000000D02*
G75*
G03*
X254000000Y-140500000I0J1500000D01*
G01*
X232500000Y-132000000D02*
X216500000Y-132000000D01*
X87000000Y-74500000D02*
X87000000Y-76500000D01*
X328122397Y-158703272D02*
X310626687Y-152296392D01*
X292000000Y-66500000D02*
G75*
G03*
X293500000Y-68000000I1500000J0D01*
G01*
X202000000Y-126500000D02*
X202000000Y-130500000D01*
X203500000Y-121000000D02*
G75*
G03*
X203500000Y-121000000I-500000J0D01*
G01*
X254000000Y-127500000D02*
X254000000Y-140500000D01*
X331500000Y-78060660D02*
X347500000Y-78060660D01*
X272000000Y-127500000D02*
G75*
G03*
X270500000Y-126000000I-1500000J0D01*
G01*
X330000000Y-74500000D02*
X330000000Y-76560660D01*
X203500000Y-99500000D02*
G75*
G03*
X203500000Y-99500000I-500000J0D01*
G01*
X234000000Y-91500000D02*
X234000000Y-85500000D01*
X255500000Y-126000000D02*
G75*
G03*
X254000000Y-127500000I0J-1500000D01*
G01*
X292000000Y-61500000D02*
X292000000Y-66500000D01*
X67245339Y-148182104D02*
X63099384Y-150555998D01*
X106879585Y-152227531D02*
G75*
G03*
X106626299Y-152294671I256315J-1478269D01*
G01*
X328367128Y-158818899D02*
G75*
G03*
X328122397Y-158703272I-760528J-1292901D01*
G01*
X291877143Y-149022030D02*
G75*
G03*
X291620962Y-149000000I-256143J-1478070D01*
G01*
X85500000Y-78000000D02*
X69500000Y-78000000D01*
X203500000Y-119500000D02*
G75*
G03*
X203500000Y-119500000I-500000J0D01*
G01*
X292000000Y-61500000D02*
G75*
G03*
X290500000Y-60000000I-1500000J0D01*
G01*
X272000000Y-66500000D02*
X272000000Y-61500000D01*
X343939509Y-167979148D02*
G75*
G03*
X346003104Y-167429230I760491J1293048D01*
G01*
X272000000Y-147500000D02*
G75*
G03*
X273500000Y-149000000I1500000J0D01*
G01*
X348999940Y-79560660D02*
G75*
G03*
X347500000Y-78060660I-1499940J60D01*
G01*
X310367068Y-152226958D02*
X291877142Y-149022038D01*
X200500000Y-132000000D02*
G75*
G03*
X202000000Y-130500000I0J1500000D01*
G01*
X163000000Y-127500000D02*
X163000000Y-140500000D01*
X69500000Y-78000000D02*
G75*
G03*
X68000000Y-79500000I0J-1500000D01*
G01*
X354458330Y-152600718D02*
X346003104Y-167429230D01*
X164500000Y-142000000D02*
X181500000Y-142000000D01*
X123500000Y-68000000D02*
G75*
G03*
X125000000Y-66500000I0J1500000D01*
G01*
X310626686Y-152296395D02*
G75*
G03*
X310367068Y-152226959I-515486J-1407305D01*
G01*
X125000000Y-61500000D02*
X125000000Y-66500000D01*
X202000000Y-108000000D02*
X215000000Y-108000000D01*
X163000000Y-127500000D02*
G75*
G03*
X161500000Y-126000000I-1500000J0D01*
G01*
X125629038Y-149000008D02*
G75*
G03*
X125372858Y-149022039I62J-1501192D01*
G01*
X70996861Y-167429250D02*
G75*
G03*
X73060480Y-167979128I1303039J742950D01*
G01*
X203500000Y-102500000D02*
G75*
G03*
X203500000Y-102500000I-500000J0D01*
G01*
X183000000Y-85500000D02*
G75*
G03*
X181500000Y-84000000I-1500000J0D01*
G01*
X202000000Y-94500000D02*
X202000000Y-98500000D01*
X203500000Y-101000000D02*
G75*
G03*
X203500000Y-101000000I-500000J0D01*
G01*
X311000000Y-69500000D02*
X311000000Y-71500000D01*
X293500000Y-68000000D02*
X309500000Y-68000000D01*
X184500000Y-132000000D02*
X200500000Y-132000000D01*
X251500000Y-84000000D02*
G75*
G03*
X253000000Y-82500000I0J1500000D01*
G01*
X354458318Y-152600711D02*
G75*
G03*
X353900616Y-150555999I-1303018J743011D01*
G01*
X252500000Y-142000000D02*
X235500000Y-142000000D01*
X125629038Y-149000000D02*
X143500000Y-149000000D01*
X143500000Y-149000000D02*
G75*
G03*
X145000000Y-147500000I0J1500000D01*
G01*
X88881007Y-158702693D02*
G75*
G03*
X88629944Y-158820621I509593J-1411107D01*
G01*
X291620962Y-149000000D02*
X273500000Y-149000000D01*
X88881007Y-158702692D02*
X106626299Y-152294670D01*
X67245345Y-148182115D02*
G75*
G03*
X68000000Y-146880386I-745345J1301715D01*
G01*
X202000000Y-126500000D02*
X215000000Y-126500000D01*
X312500000Y-73000000D02*
X328500000Y-73000000D01*
X145000000Y-147500000D02*
X145000000Y-127500000D01*
X216500000Y-93000000D02*
G75*
G03*
X215000000Y-94500000I0J-1500000D01*
G01*
X349000013Y-146880386D02*
G75*
G03*
X349754661Y-148182103I1499987J-14D01*
G01*
X145000000Y-61500000D02*
G75*
G03*
X143500000Y-60000000I-1500000J0D01*
G01*
X162500000Y-68000000D02*
X146500000Y-68000000D01*
X146500000Y-126000000D02*
X161500000Y-126000000D01*
X107500000Y-68000000D02*
G75*
G03*
X106000000Y-69500000I0J-1500000D01*
G01*
X202000000Y-98500000D02*
X215000000Y-98500000D01*
X73060480Y-167979129D02*
X88629944Y-158820621D01*
M02*
