%TF.GenerationSoftware,KiCad,Pcbnew,7.0.9*%
%TF.CreationDate,2023-11-27T10:59:26+01:00*%
%TF.ProjectId,SplitErgoLL_v2,53706c69-7445-4726-976f-4c4c5f76322e,rev?*%
%TF.SameCoordinates,Original*%
%TF.FileFunction,Soldermask,Top*%
%TF.FilePolarity,Negative*%
%FSLAX46Y46*%
G04 Gerber Fmt 4.6, Leading zero omitted, Abs format (unit mm)*
G04 Created by KiCad (PCBNEW 7.0.9) date 2023-11-27 10:59:26*
%MOMM*%
%LPD*%
G01*
G04 APERTURE LIST*
G04 Aperture macros list*
%AMRoundRect*
0 Rectangle with rounded corners*
0 $1 Rounding radius*
0 $2 $3 $4 $5 $6 $7 $8 $9 X,Y pos of 4 corners*
0 Add a 4 corners polygon primitive as box body*
4,1,4,$2,$3,$4,$5,$6,$7,$8,$9,$2,$3,0*
0 Add four circle primitives for the rounded corners*
1,1,$1+$1,$2,$3*
1,1,$1+$1,$4,$5*
1,1,$1+$1,$6,$7*
1,1,$1+$1,$8,$9*
0 Add four rect primitives between the rounded corners*
20,1,$1+$1,$2,$3,$4,$5,0*
20,1,$1+$1,$4,$5,$6,$7,0*
20,1,$1+$1,$6,$7,$8,$9,0*
20,1,$1+$1,$8,$9,$2,$3,0*%
G04 Aperture macros list end*
%ADD10C,1.750000*%
%ADD11C,4.000000*%
%ADD12C,2.500000*%
%ADD13C,0.900000*%
%ADD14RoundRect,0.102000X-0.750000X0.350000X-0.750000X-0.350000X0.750000X-0.350000X0.750000X0.350000X0*%
%ADD15RoundRect,0.102000X-0.400000X0.500000X-0.400000X-0.500000X0.400000X-0.500000X0.400000X0.500000X0*%
%ADD16RoundRect,0.102000X-0.500000X0.600000X-0.500000X-0.600000X0.500000X-0.600000X0.500000X0.600000X0*%
%ADD17RoundRect,0.102000X-0.825000X-0.825000X0.825000X-0.825000X0.825000X0.825000X-0.825000X0.825000X0*%
%ADD18C,1.854000*%
%ADD19O,3.204000X6.204000*%
%ADD20R,1.752600X1.752600*%
%ADD21C,1.752600*%
%ADD22RoundRect,0.102000X0.500000X-0.600000X0.500000X0.600000X-0.500000X0.600000X-0.500000X-0.600000X0*%
%ADD23RoundRect,0.102000X0.750000X-0.350000X0.750000X0.350000X-0.750000X0.350000X-0.750000X-0.350000X0*%
%ADD24RoundRect,0.102000X0.400000X-0.500000X0.400000X0.500000X-0.400000X0.500000X-0.400000X-0.500000X0*%
G04 APERTURE END LIST*
D10*
%TO.C,KSW41*%
X186920000Y-103000000D03*
D11*
X192000000Y-103000000D03*
D10*
X197080000Y-103000000D03*
D12*
X188190000Y-100460000D03*
X194540000Y-97920000D03*
%TD*%
D10*
%TO.C,KSW24*%
X91920000Y-121000000D03*
D11*
X97000000Y-121000000D03*
D10*
X102080000Y-121000000D03*
D12*
X93190000Y-118460000D03*
X99540000Y-115920000D03*
%TD*%
D10*
%TO.C,KSW7*%
X295920000Y-116000000D03*
D11*
X301000000Y-116000000D03*
D10*
X306080000Y-116000000D03*
D12*
X297190000Y-113460000D03*
X303540000Y-110920000D03*
%TD*%
D10*
%TO.C,KSW11*%
X276920000Y-108000000D03*
D11*
X282000000Y-108000000D03*
D10*
X287080000Y-108000000D03*
D12*
X278190000Y-105460000D03*
X284540000Y-102920000D03*
%TD*%
D13*
%TO.C,SW2*%
X70000000Y-139500000D03*
X70000000Y-142500000D03*
D14*
X71750000Y-138750000D03*
X71750000Y-141750000D03*
X71750000Y-143250000D03*
D15*
X71050000Y-137350000D03*
X68950000Y-137350000D03*
X68950000Y-144650000D03*
X71050000Y-144650000D03*
%TD*%
D10*
%TO.C,KSW4*%
X337200000Y-152460000D03*
D11*
X341599409Y-155000000D03*
D10*
X345998818Y-157540000D03*
D12*
X339569852Y-150895295D03*
X346339114Y-151870591D03*
%TD*%
D10*
%TO.C,KSW15*%
X257920000Y-116000000D03*
D11*
X263000000Y-116000000D03*
D10*
X268080000Y-116000000D03*
D12*
X259190000Y-113460000D03*
X265540000Y-110920000D03*
%TD*%
D10*
%TO.C,KSW16*%
X276920000Y-139000000D03*
D11*
X282000000Y-139000000D03*
D10*
X287080000Y-139000000D03*
D12*
X278190000Y-136460000D03*
X284540000Y-133920000D03*
%TD*%
D16*
%TO.C,Bt2*%
X70850000Y-118800000D03*
X69150000Y-118800000D03*
X70850000Y-113200000D03*
X69150000Y-113200000D03*
%TD*%
D10*
%TO.C,KSW5*%
X295920000Y-78000000D03*
D11*
X301000000Y-78000000D03*
D10*
X306080000Y-78000000D03*
D12*
X297190000Y-75460000D03*
X303540000Y-72920000D03*
%TD*%
D10*
%TO.C,KSW6*%
X295920000Y-97000000D03*
D11*
X301000000Y-97000000D03*
D10*
X306080000Y-97000000D03*
D12*
X297190000Y-94460000D03*
X303540000Y-91920000D03*
%TD*%
D17*
%TO.C,ENC2*%
X73000000Y-121000000D03*
D18*
X78000000Y-121000000D03*
X73000000Y-135500000D03*
X78000000Y-135500000D03*
X75500000Y-135500000D03*
D19*
X69800000Y-128000000D03*
X81200000Y-128000000D03*
%TD*%
D20*
%TO.C,MCU2*%
X70380000Y-82030000D03*
D21*
X70380000Y-84570000D03*
X70380000Y-87110000D03*
X70380000Y-89650000D03*
X70380000Y-92190000D03*
X70380000Y-94730000D03*
X70380000Y-97270000D03*
X70380000Y-99810000D03*
X70380000Y-102350000D03*
X70380000Y-104890000D03*
X70380000Y-107430000D03*
X70380000Y-109970000D03*
X85620000Y-109970000D03*
X85620000Y-107430000D03*
X85620000Y-104890000D03*
X85620000Y-102350000D03*
X85620000Y-99810000D03*
X85620000Y-97270000D03*
X85620000Y-94730000D03*
X85620000Y-92190000D03*
X85620000Y-89650000D03*
X85620000Y-87110000D03*
X85620000Y-84570000D03*
X85620000Y-82030000D03*
%TD*%
D10*
%TO.C,KSW40*%
X167920000Y-132000000D03*
D11*
X173000000Y-132000000D03*
D10*
X178080000Y-132000000D03*
D12*
X169190000Y-129460000D03*
X175540000Y-126920000D03*
%TD*%
D10*
%TO.C,KSW20*%
X219920000Y-103000000D03*
D11*
X225000000Y-103000000D03*
D10*
X230080000Y-103000000D03*
D12*
X221190000Y-100460000D03*
X227540000Y-97920000D03*
%TD*%
D10*
%TO.C,KSW36*%
X148920000Y-116000000D03*
D11*
X154000000Y-116000000D03*
D10*
X159080000Y-116000000D03*
D12*
X150190000Y-113460000D03*
X156540000Y-110920000D03*
%TD*%
D10*
%TO.C,KSW8*%
X318000000Y-144462538D03*
D11*
X322773639Y-146200000D03*
D10*
X327547278Y-147937462D03*
D12*
X320062141Y-142510084D03*
X326897921Y-142295093D03*
%TD*%
D10*
%TO.C,KSW27*%
X110920000Y-97000000D03*
D11*
X116000000Y-97000000D03*
D10*
X121080000Y-97000000D03*
D12*
X112190000Y-94460000D03*
X118540000Y-91920000D03*
%TD*%
D10*
%TO.C,KSW35*%
X148920000Y-97000000D03*
D11*
X154000000Y-97000000D03*
D10*
X159080000Y-97000000D03*
D12*
X150190000Y-94460000D03*
X156540000Y-91920000D03*
%TD*%
D17*
%TO.C,ENC1*%
X339000000Y-121000000D03*
D18*
X344000000Y-121000000D03*
X339000000Y-135500000D03*
X344000000Y-135500000D03*
X341500000Y-135500000D03*
D19*
X335800000Y-128000000D03*
X347200000Y-128000000D03*
%TD*%
D10*
%TO.C,KSW14*%
X257920000Y-97000000D03*
D11*
X263000000Y-97000000D03*
D10*
X268080000Y-97000000D03*
D12*
X259190000Y-94460000D03*
X265540000Y-91920000D03*
%TD*%
D10*
%TO.C,KSW38*%
X167920000Y-94000000D03*
D11*
X173000000Y-94000000D03*
D10*
X178080000Y-94000000D03*
D12*
X169190000Y-91460000D03*
X175540000Y-88920000D03*
%TD*%
D10*
%TO.C,KSW31*%
X129920000Y-89000000D03*
D11*
X135000000Y-89000000D03*
D10*
X140080000Y-89000000D03*
D12*
X131190000Y-86460000D03*
X137540000Y-83920000D03*
%TD*%
D10*
%TO.C,KSW1*%
X314920000Y-83000000D03*
D11*
X320000000Y-83000000D03*
D10*
X325080000Y-83000000D03*
D12*
X316190000Y-80460000D03*
X322540000Y-77920000D03*
%TD*%
D10*
%TO.C,KSW25*%
X71001182Y-157540000D03*
D11*
X75400591Y-155000000D03*
D10*
X79800000Y-152460000D03*
D12*
X70831034Y-154705295D03*
X75060296Y-149330591D03*
%TD*%
D10*
%TO.C,KSW22*%
X91920000Y-83000000D03*
D11*
X97000000Y-83000000D03*
D10*
X102080000Y-83000000D03*
D12*
X93190000Y-80460000D03*
X99540000Y-77920000D03*
%TD*%
D10*
%TO.C,KSW29*%
X89452722Y-147937462D03*
D11*
X94226361Y-146200000D03*
D10*
X99000000Y-144462538D03*
D12*
X89777401Y-145116277D03*
X94875718Y-140557630D03*
%TD*%
D10*
%TO.C,KSW13*%
X257920000Y-78000000D03*
D11*
X263000000Y-78000000D03*
D10*
X268080000Y-78000000D03*
D12*
X259190000Y-75460000D03*
X265540000Y-72920000D03*
%TD*%
D10*
%TO.C,KSW3*%
X314920000Y-121000000D03*
D11*
X320000000Y-121000000D03*
D10*
X325080000Y-121000000D03*
D12*
X316190000Y-118460000D03*
X322540000Y-115920000D03*
%TD*%
D22*
%TO.C,Bt1*%
X346150000Y-113200000D03*
X347850000Y-113200000D03*
X346150000Y-118800000D03*
X347850000Y-118800000D03*
%TD*%
D10*
%TO.C,KSW30*%
X129920000Y-70000000D03*
D11*
X135000000Y-70000000D03*
D10*
X140080000Y-70000000D03*
D12*
X131190000Y-67460000D03*
X137540000Y-64920000D03*
%TD*%
D10*
%TO.C,KSW39*%
X167920000Y-113000000D03*
D11*
X173000000Y-113000000D03*
D10*
X178080000Y-113000000D03*
D12*
X169190000Y-110460000D03*
X175540000Y-107920000D03*
%TD*%
D10*
%TO.C,KSW12*%
X297694354Y-139917867D03*
D11*
X302697177Y-140800000D03*
D10*
X307700000Y-141682133D03*
D12*
X299386126Y-137636989D03*
X306080721Y-136238243D03*
%TD*%
D10*
%TO.C,KSW19*%
X238920000Y-132000000D03*
D11*
X244000000Y-132000000D03*
D10*
X249080000Y-132000000D03*
D12*
X240190000Y-129460000D03*
X246540000Y-126920000D03*
%TD*%
D10*
%TO.C,KSW17*%
X238920000Y-94000000D03*
D11*
X244000000Y-94000000D03*
D10*
X249080000Y-94000000D03*
D12*
X240190000Y-91460000D03*
X246540000Y-88920000D03*
%TD*%
D10*
%TO.C,Bat 3.7V*%
X81510000Y-115527500D03*
X84490000Y-115517500D03*
%TD*%
%TO.C,Bat 3.7V*%
X332500000Y-115500000D03*
X335480000Y-115490000D03*
%TD*%
D20*
%TO.C,MCU1*%
X331380000Y-82030000D03*
D21*
X331380000Y-84570000D03*
X331380000Y-87110000D03*
X331380000Y-89650000D03*
X331380000Y-92190000D03*
X331380000Y-94730000D03*
X331380000Y-97270000D03*
X331380000Y-99810000D03*
X331380000Y-102350000D03*
X331380000Y-104890000D03*
X331380000Y-107430000D03*
X331380000Y-109970000D03*
X346620000Y-109970000D03*
X346620000Y-107430000D03*
X346620000Y-104890000D03*
X346620000Y-102350000D03*
X346620000Y-99810000D03*
X346620000Y-97270000D03*
X346620000Y-94730000D03*
X346620000Y-92190000D03*
X346620000Y-89650000D03*
X346620000Y-87110000D03*
X346620000Y-84570000D03*
X346620000Y-82030000D03*
%TD*%
D10*
%TO.C,KSW26*%
X110920000Y-78000000D03*
D11*
X116000000Y-78000000D03*
D10*
X121080000Y-78000000D03*
D12*
X112190000Y-75460000D03*
X118540000Y-72920000D03*
%TD*%
D13*
%TO.C,SW1*%
X347000000Y-142500000D03*
X347000000Y-139500000D03*
D23*
X345250000Y-143250000D03*
X345250000Y-140250000D03*
X345250000Y-138750000D03*
D24*
X345950000Y-144650000D03*
X348050000Y-144650000D03*
X348050000Y-137350000D03*
X345950000Y-137350000D03*
%TD*%
D10*
%TO.C,KSW21*%
X219920000Y-122000000D03*
D11*
X225000000Y-122000000D03*
D10*
X230080000Y-122000000D03*
D12*
X221190000Y-119460000D03*
X227540000Y-116920000D03*
%TD*%
D10*
%TO.C,KSW37*%
X129920000Y-139000000D03*
D11*
X135000000Y-139000000D03*
D10*
X140080000Y-139000000D03*
D12*
X131190000Y-136460000D03*
X137540000Y-133920000D03*
%TD*%
D10*
%TO.C,KSW10*%
X276920000Y-89000000D03*
D11*
X282000000Y-89000000D03*
D10*
X287080000Y-89000000D03*
D12*
X278190000Y-86460000D03*
X284540000Y-83920000D03*
%TD*%
D10*
%TO.C,KSW23*%
X91920000Y-102000000D03*
D11*
X97000000Y-102000000D03*
D10*
X102080000Y-102000000D03*
D12*
X93190000Y-99460000D03*
X99540000Y-96920000D03*
%TD*%
D10*
%TO.C,KSW2*%
X314920000Y-102000000D03*
D11*
X320000000Y-102000000D03*
D10*
X325080000Y-102000000D03*
D12*
X316190000Y-99460000D03*
X322540000Y-96920000D03*
%TD*%
D10*
%TO.C,KSW32*%
X129920000Y-108000000D03*
D11*
X135000000Y-108000000D03*
D10*
X140080000Y-108000000D03*
D12*
X131190000Y-105460000D03*
X137540000Y-102920000D03*
%TD*%
D10*
%TO.C,KSW34*%
X148920000Y-78000000D03*
D11*
X154000000Y-78000000D03*
D10*
X159080000Y-78000000D03*
D12*
X150190000Y-75460000D03*
X156540000Y-72920000D03*
%TD*%
D10*
%TO.C,KSW9*%
X276920000Y-70000000D03*
D11*
X282000000Y-70000000D03*
D10*
X287080000Y-70000000D03*
D12*
X278190000Y-67460000D03*
X284540000Y-64920000D03*
%TD*%
D10*
%TO.C,KSW33*%
X109294354Y-141682133D03*
D11*
X114297177Y-140800000D03*
D10*
X119300000Y-139917867D03*
D12*
X110103993Y-138960188D03*
X115916456Y-135356110D03*
%TD*%
D10*
%TO.C,KSW18*%
X238920000Y-113000000D03*
D11*
X244000000Y-113000000D03*
D10*
X249080000Y-113000000D03*
D12*
X240190000Y-110460000D03*
X246540000Y-107920000D03*
%TD*%
%TO.C,KSW42*%
X194540000Y-116920000D03*
X188190000Y-119460000D03*
D10*
X197080000Y-122000000D03*
D11*
X192000000Y-122000000D03*
D10*
X186920000Y-122000000D03*
%TD*%
%TO.C,KSW28*%
X110920000Y-116000000D03*
D11*
X116000000Y-116000000D03*
D10*
X121080000Y-116000000D03*
D12*
X112190000Y-113460000D03*
X118540000Y-110920000D03*
%TD*%
M02*
