M48
; DRILL file {KiCad 7.0.9} date Mon Nov 27 13:24:02 2023
; FORMAT={-:-/ absolute / inch / decimal}
; #@! TF.CreationDate,2023-11-27T13:24:02+01:00
; #@! TF.GenerationSoftware,Kicad,Pcbnew,7.0.9
; #@! TF.FileFunction,NonPlated,1,2,NPTH
FMAT,2
INCH
; #@! TA.AperFunction,NonPlated,NPTH,ComponentDrill
T1C0.0354
; #@! TA.AperFunction,NonPlated,NPTH,ComponentDrill
T2C0.0689
; #@! TA.AperFunction,NonPlated,NPTH,ComponentDrill
T3C0.1575
%
G90
G05
T1
X2.7559Y-5.4921
X2.7559Y-5.6102
X13.6614Y-5.4921
X13.6614Y-5.6102
T2
X2.7953Y-6.2024
X3.1417Y-6.0024
X3.5218Y-5.8243
X3.6189Y-3.2677
X3.6189Y-4.0157
X3.6189Y-4.7638
X3.8976Y-5.6875
X4.0189Y-3.2677
X4.0189Y-4.0157
X4.0189Y-4.7638
X4.3029Y-5.578
X4.3669Y-3.0709
X4.3669Y-3.8189
X4.3669Y-4.5669
X4.6969Y-5.5086
X4.7669Y-3.0709
X4.7669Y-3.8189
X4.7669Y-4.5669
X5.115Y-2.7559
X5.115Y-3.5039
X5.115Y-4.252
X5.115Y-5.4724
X5.515Y-2.7559
X5.515Y-3.5039
X5.515Y-4.252
X5.515Y-5.4724
X5.863Y-3.0709
X5.863Y-3.8189
X5.863Y-4.5669
X6.263Y-3.0709
X6.263Y-3.8189
X6.263Y-4.5669
X6.611Y-3.7008
X6.611Y-4.4488
X6.611Y-5.1969
X7.011Y-3.7008
X7.011Y-4.4488
X7.011Y-5.1969
X7.3591Y-4.0551
X7.3591Y-4.8031
X7.7591Y-4.0551
X7.7591Y-4.8031
X8.6583Y-4.0551
X8.6583Y-4.8031
X9.0583Y-4.0551
X9.0583Y-4.8031
X9.4063Y-3.7008
X9.4063Y-4.4488
X9.4063Y-5.1969
X9.8063Y-3.7008
X9.8063Y-4.4488
X9.8063Y-5.1969
X10.1543Y-3.0709
X10.1543Y-3.8189
X10.1543Y-4.5669
X10.5543Y-3.0709
X10.5543Y-3.8189
X10.5543Y-4.5669
X10.9024Y-2.7559
X10.9024Y-3.5039
X10.9024Y-4.252
X10.9024Y-5.4724
X11.3024Y-2.7559
X11.3024Y-3.5039
X11.3024Y-4.252
X11.3024Y-5.4724
X11.6504Y-3.0709
X11.6504Y-3.8189
X11.6504Y-4.5669
X11.7203Y-5.5086
X12.0504Y-3.0709
X12.0504Y-3.8189
X12.0504Y-4.5669
X12.1142Y-5.578
X12.3984Y-3.2677
X12.3984Y-4.0157
X12.3984Y-4.7638
X12.5197Y-5.6875
X12.7984Y-3.2677
X12.7984Y-4.0157
X12.7984Y-4.7638
X12.8956Y-5.8243
X13.2756Y-6.0024
X13.622Y-6.2024
T3
X2.9685Y-6.1024
X3.7097Y-5.7559
X3.8189Y-3.2677
X3.8189Y-4.0157
X3.8189Y-4.7638
X4.4999Y-5.5433
X4.5669Y-3.0709
X4.5669Y-3.8189
X4.5669Y-4.5669
X5.315Y-2.7559
X5.315Y-3.5039
X5.315Y-4.252
X5.315Y-5.4724
X6.063Y-3.0709
X6.063Y-3.8189
X6.063Y-4.5669
X6.811Y-3.7008
X6.811Y-4.4488
X6.811Y-5.1969
X7.5591Y-4.0551
X7.5591Y-4.8031
X8.8583Y-4.0551
X8.8583Y-4.8031
X9.6063Y-3.7008
X9.6063Y-4.4488
X9.6063Y-5.1969
X10.3543Y-3.0709
X10.3543Y-3.8189
X10.3543Y-4.5669
X11.1024Y-2.7559
X11.1024Y-3.5039
X11.1024Y-4.252
X11.1024Y-5.4724
X11.8504Y-3.0709
X11.8504Y-3.8189
X11.8504Y-4.5669
X11.9172Y-5.5433
X12.5984Y-3.2677
X12.5984Y-4.0157
X12.5984Y-4.7638
X12.7076Y-5.7559
X13.4488Y-6.1024
T0
M30
