M48
; DRILL file {KiCad 7.0.9} date Mon Nov 27 13:24:02 2023
; FORMAT={-:-/ absolute / inch / decimal}
; #@! TF.CreationDate,2023-11-27T13:24:02+01:00
; #@! TF.GenerationSoftware,Kicad,Pcbnew,7.0.9
; #@! TF.FileFunction,Plated,1,2,PTH
FMAT,2
INCH
; #@! TA.AperFunction,Plated,PTH,ViaDrill
T1C0.0157
; #@! TA.AperFunction,Plated,PTH,ComponentDrill
T2C0.0394
; #@! TA.AperFunction,Plated,PTH,ComponentDrill
T3C0.0430
; #@! TA.AperFunction,Plated,PTH,ComponentDrill
T4C0.0433
; #@! TA.AperFunction,Plated,PTH,ComponentDrill
T5C0.0591
; #@! TA.AperFunction,Plated,PTH,ComponentDrill
T6C0.0787
%
G90
G05
T1
X2.874Y-4.8819
X3.0118Y-4.8425
X3.189Y-4.2323
X13.3661Y-4.2323
X13.3661Y-4.3307
X13.622Y-4.5276
T2
X3.2091Y-4.5483
X3.3264Y-4.5479
X13.0906Y-4.5472
X13.2079Y-4.5469
T3
X2.7709Y-3.2295
X2.7709Y-3.3295
X2.7709Y-3.4295
X2.7709Y-3.5295
X2.7709Y-3.6295
X2.7709Y-3.7295
X2.7709Y-3.8295
X2.7709Y-3.9295
X2.7709Y-4.0295
X2.7709Y-4.1295
X2.7709Y-4.2295
X2.7709Y-4.3295
X3.3709Y-3.2295
X3.3709Y-3.3295
X3.3709Y-3.4295
X3.3709Y-3.5295
X3.3709Y-3.6295
X3.3709Y-3.7295
X3.3709Y-3.8295
X3.3709Y-3.9295
X3.3709Y-4.0295
X3.3709Y-4.1295
X3.3709Y-4.2295
X3.3709Y-4.3295
X13.0465Y-3.2295
X13.0465Y-3.3295
X13.0465Y-3.4295
X13.0465Y-3.5295
X13.0465Y-3.6295
X13.0465Y-3.7295
X13.0465Y-3.8295
X13.0465Y-3.9295
X13.0465Y-4.0295
X13.0465Y-4.1295
X13.0465Y-4.2295
X13.0465Y-4.3295
X13.6465Y-3.2295
X13.6465Y-3.3295
X13.6465Y-3.4295
X13.6465Y-3.5295
X13.6465Y-3.6295
X13.6465Y-3.7295
X13.6465Y-3.8295
X13.6465Y-3.9295
X13.6465Y-4.0295
X13.6465Y-4.1295
X13.6465Y-4.2295
X13.6465Y-4.3295
T4
X2.874Y-4.7638
X2.874Y-5.3346
X2.9724Y-5.3346
X3.0709Y-4.7638
X3.0709Y-5.3346
X13.3465Y-4.7638
X13.3465Y-5.3346
X13.4449Y-5.3346
X13.5433Y-4.7638
X13.5433Y-5.3346
T5
X2.7886Y-6.0908
X2.9551Y-5.8792
X3.5345Y-5.7132
X3.6689Y-3.1677
X3.6689Y-3.9157
X3.6689Y-4.6638
X3.7353Y-5.5338
X3.9189Y-3.0677
X3.9189Y-3.8157
X3.9189Y-4.5638
X4.3348Y-5.4709
X4.4169Y-2.9709
X4.4169Y-3.7189
X4.4169Y-4.4669
X4.5636Y-5.329
X4.6669Y-2.8709
X4.6669Y-3.6189
X4.6669Y-4.3669
X5.165Y-2.6559
X5.165Y-3.4039
X5.165Y-4.152
X5.165Y-5.3724
X5.415Y-2.5559
X5.415Y-3.3039
X5.415Y-4.052
X5.415Y-5.2724
X5.913Y-2.9709
X5.913Y-3.7189
X5.913Y-4.4669
X6.163Y-2.8709
X6.163Y-3.6189
X6.163Y-4.3669
X6.661Y-3.6008
X6.661Y-4.3488
X6.661Y-5.0969
X6.911Y-3.5008
X6.911Y-4.2488
X6.911Y-4.9969
X7.4091Y-3.9551
X7.4091Y-4.7031
X7.6591Y-3.8551
X7.6591Y-4.6031
X8.7083Y-3.9551
X8.7083Y-4.7031
X8.9583Y-3.8551
X8.9583Y-4.6031
X9.4563Y-3.6008
X9.4563Y-4.3488
X9.4563Y-5.0969
X9.7063Y-3.5008
X9.7063Y-4.2488
X9.7063Y-4.9969
X10.2043Y-2.9709
X10.2043Y-3.7189
X10.2043Y-4.4669
X10.4543Y-2.8709
X10.4543Y-3.6189
X10.4543Y-4.3669
X10.9524Y-2.6559
X10.9524Y-3.4039
X10.9524Y-4.152
X10.9524Y-5.3724
X11.2024Y-2.5559
X11.2024Y-3.3039
X11.2024Y-4.052
X11.2024Y-5.2724
X11.7004Y-2.9709
X11.7004Y-3.7189
X11.7004Y-4.4669
X11.7869Y-5.4188
X11.9504Y-2.8709
X11.9504Y-3.6189
X11.9504Y-4.3669
X12.0504Y-5.3637
X12.4484Y-3.1677
X12.4484Y-3.9157
X12.4484Y-4.6638
X12.6009Y-5.6106
X12.6984Y-3.0677
X12.6984Y-3.8157
X12.6984Y-4.5638
X12.87Y-5.6022
X13.3689Y-5.9408
X13.6354Y-5.9792
T6
G00X2.748Y-5.0236
M15
G01X2.748Y-5.0551
M16
G05
G00X3.1969Y-5.0236
M15
G01X3.1969Y-5.0551
M16
G05
G00X13.2205Y-5.0236
M15
G01X13.2205Y-5.0551
M16
G05
G00X13.6693Y-5.0236
M15
G01X13.6693Y-5.0551
M16
G05
T0
M30
