%TF.GenerationSoftware,KiCad,Pcbnew,7.0.9*%
%TF.CreationDate,2023-11-27T10:59:26+01:00*%
%TF.ProjectId,SplitErgoLL_v2,53706c69-7445-4726-976f-4c4c5f76322e,rev?*%
%TF.SameCoordinates,Original*%
%TF.FileFunction,Legend,Bot*%
%TF.FilePolarity,Positive*%
%FSLAX46Y46*%
G04 Gerber Fmt 4.6, Leading zero omitted, Abs format (unit mm)*
G04 Created by KiCad (PCBNEW 7.0.9) date 2023-11-27 10:59:26*
%MOMM*%
%LPD*%
G01*
G04 APERTURE LIST*
%ADD10C,0.150000*%
%ADD11C,0.098425*%
%ADD12C,0.200000*%
%ADD13C,0.127000*%
%ADD14R,1.752600X1.752600*%
%ADD15C,1.752600*%
G04 APERTURE END LIST*
D10*
X110654819Y-88885714D02*
X109654819Y-88885714D01*
X109654819Y-88885714D02*
X109654819Y-89123809D01*
X109654819Y-89123809D02*
X109702438Y-89266666D01*
X109702438Y-89266666D02*
X109797676Y-89361904D01*
X109797676Y-89361904D02*
X109892914Y-89409523D01*
X109892914Y-89409523D02*
X110083390Y-89457142D01*
X110083390Y-89457142D02*
X110226247Y-89457142D01*
X110226247Y-89457142D02*
X110416723Y-89409523D01*
X110416723Y-89409523D02*
X110511961Y-89361904D01*
X110511961Y-89361904D02*
X110607200Y-89266666D01*
X110607200Y-89266666D02*
X110654819Y-89123809D01*
X110654819Y-89123809D02*
X110654819Y-88885714D01*
X109750057Y-89838095D02*
X109702438Y-89885714D01*
X109702438Y-89885714D02*
X109654819Y-89980952D01*
X109654819Y-89980952D02*
X109654819Y-90219047D01*
X109654819Y-90219047D02*
X109702438Y-90314285D01*
X109702438Y-90314285D02*
X109750057Y-90361904D01*
X109750057Y-90361904D02*
X109845295Y-90409523D01*
X109845295Y-90409523D02*
X109940533Y-90409523D01*
X109940533Y-90409523D02*
X110083390Y-90361904D01*
X110083390Y-90361904D02*
X110654819Y-89790476D01*
X110654819Y-89790476D02*
X110654819Y-90409523D01*
X109654819Y-90742857D02*
X109654819Y-91409523D01*
X109654819Y-91409523D02*
X110654819Y-90980952D01*
X78454819Y-146785714D02*
X77454819Y-146785714D01*
X77454819Y-146785714D02*
X77454819Y-147023809D01*
X77454819Y-147023809D02*
X77502438Y-147166666D01*
X77502438Y-147166666D02*
X77597676Y-147261904D01*
X77597676Y-147261904D02*
X77692914Y-147309523D01*
X77692914Y-147309523D02*
X77883390Y-147357142D01*
X77883390Y-147357142D02*
X78026247Y-147357142D01*
X78026247Y-147357142D02*
X78216723Y-147309523D01*
X78216723Y-147309523D02*
X78311961Y-147261904D01*
X78311961Y-147261904D02*
X78407200Y-147166666D01*
X78407200Y-147166666D02*
X78454819Y-147023809D01*
X78454819Y-147023809D02*
X78454819Y-146785714D01*
X77550057Y-147738095D02*
X77502438Y-147785714D01*
X77502438Y-147785714D02*
X77454819Y-147880952D01*
X77454819Y-147880952D02*
X77454819Y-148119047D01*
X77454819Y-148119047D02*
X77502438Y-148214285D01*
X77502438Y-148214285D02*
X77550057Y-148261904D01*
X77550057Y-148261904D02*
X77645295Y-148309523D01*
X77645295Y-148309523D02*
X77740533Y-148309523D01*
X77740533Y-148309523D02*
X77883390Y-148261904D01*
X77883390Y-148261904D02*
X78454819Y-147690476D01*
X78454819Y-147690476D02*
X78454819Y-148309523D01*
X77454819Y-149214285D02*
X77454819Y-148738095D01*
X77454819Y-148738095D02*
X77931009Y-148690476D01*
X77931009Y-148690476D02*
X77883390Y-148738095D01*
X77883390Y-148738095D02*
X77835771Y-148833333D01*
X77835771Y-148833333D02*
X77835771Y-149071428D01*
X77835771Y-149071428D02*
X77883390Y-149166666D01*
X77883390Y-149166666D02*
X77931009Y-149214285D01*
X77931009Y-149214285D02*
X78026247Y-149261904D01*
X78026247Y-149261904D02*
X78264342Y-149261904D01*
X78264342Y-149261904D02*
X78359580Y-149214285D01*
X78359580Y-149214285D02*
X78407200Y-149166666D01*
X78407200Y-149166666D02*
X78454819Y-149071428D01*
X78454819Y-149071428D02*
X78454819Y-148833333D01*
X78454819Y-148833333D02*
X78407200Y-148738095D01*
X78407200Y-148738095D02*
X78359580Y-148690476D01*
X238654819Y-104985714D02*
X237654819Y-104985714D01*
X237654819Y-104985714D02*
X237654819Y-105223809D01*
X237654819Y-105223809D02*
X237702438Y-105366666D01*
X237702438Y-105366666D02*
X237797676Y-105461904D01*
X237797676Y-105461904D02*
X237892914Y-105509523D01*
X237892914Y-105509523D02*
X238083390Y-105557142D01*
X238083390Y-105557142D02*
X238226247Y-105557142D01*
X238226247Y-105557142D02*
X238416723Y-105509523D01*
X238416723Y-105509523D02*
X238511961Y-105461904D01*
X238511961Y-105461904D02*
X238607200Y-105366666D01*
X238607200Y-105366666D02*
X238654819Y-105223809D01*
X238654819Y-105223809D02*
X238654819Y-104985714D01*
X238654819Y-106509523D02*
X238654819Y-105938095D01*
X238654819Y-106223809D02*
X237654819Y-106223809D01*
X237654819Y-106223809D02*
X237797676Y-106128571D01*
X237797676Y-106128571D02*
X237892914Y-106033333D01*
X237892914Y-106033333D02*
X237940533Y-105938095D01*
X238083390Y-107080952D02*
X238035771Y-106985714D01*
X238035771Y-106985714D02*
X237988152Y-106938095D01*
X237988152Y-106938095D02*
X237892914Y-106890476D01*
X237892914Y-106890476D02*
X237845295Y-106890476D01*
X237845295Y-106890476D02*
X237750057Y-106938095D01*
X237750057Y-106938095D02*
X237702438Y-106985714D01*
X237702438Y-106985714D02*
X237654819Y-107080952D01*
X237654819Y-107080952D02*
X237654819Y-107271428D01*
X237654819Y-107271428D02*
X237702438Y-107366666D01*
X237702438Y-107366666D02*
X237750057Y-107414285D01*
X237750057Y-107414285D02*
X237845295Y-107461904D01*
X237845295Y-107461904D02*
X237892914Y-107461904D01*
X237892914Y-107461904D02*
X237988152Y-107414285D01*
X237988152Y-107414285D02*
X238035771Y-107366666D01*
X238035771Y-107366666D02*
X238083390Y-107271428D01*
X238083390Y-107271428D02*
X238083390Y-107080952D01*
X238083390Y-107080952D02*
X238131009Y-106985714D01*
X238131009Y-106985714D02*
X238178628Y-106938095D01*
X238178628Y-106938095D02*
X238273866Y-106890476D01*
X238273866Y-106890476D02*
X238464342Y-106890476D01*
X238464342Y-106890476D02*
X238559580Y-106938095D01*
X238559580Y-106938095D02*
X238607200Y-106985714D01*
X238607200Y-106985714D02*
X238654819Y-107080952D01*
X238654819Y-107080952D02*
X238654819Y-107271428D01*
X238654819Y-107271428D02*
X238607200Y-107366666D01*
X238607200Y-107366666D02*
X238559580Y-107414285D01*
X238559580Y-107414285D02*
X238464342Y-107461904D01*
X238464342Y-107461904D02*
X238273866Y-107461904D01*
X238273866Y-107461904D02*
X238178628Y-107414285D01*
X238178628Y-107414285D02*
X238131009Y-107366666D01*
X238131009Y-107366666D02*
X238083390Y-107271428D01*
X91654819Y-94085714D02*
X90654819Y-94085714D01*
X90654819Y-94085714D02*
X90654819Y-94323809D01*
X90654819Y-94323809D02*
X90702438Y-94466666D01*
X90702438Y-94466666D02*
X90797676Y-94561904D01*
X90797676Y-94561904D02*
X90892914Y-94609523D01*
X90892914Y-94609523D02*
X91083390Y-94657142D01*
X91083390Y-94657142D02*
X91226247Y-94657142D01*
X91226247Y-94657142D02*
X91416723Y-94609523D01*
X91416723Y-94609523D02*
X91511961Y-94561904D01*
X91511961Y-94561904D02*
X91607200Y-94466666D01*
X91607200Y-94466666D02*
X91654819Y-94323809D01*
X91654819Y-94323809D02*
X91654819Y-94085714D01*
X90750057Y-95038095D02*
X90702438Y-95085714D01*
X90702438Y-95085714D02*
X90654819Y-95180952D01*
X90654819Y-95180952D02*
X90654819Y-95419047D01*
X90654819Y-95419047D02*
X90702438Y-95514285D01*
X90702438Y-95514285D02*
X90750057Y-95561904D01*
X90750057Y-95561904D02*
X90845295Y-95609523D01*
X90845295Y-95609523D02*
X90940533Y-95609523D01*
X90940533Y-95609523D02*
X91083390Y-95561904D01*
X91083390Y-95561904D02*
X91654819Y-94990476D01*
X91654819Y-94990476D02*
X91654819Y-95609523D01*
X90654819Y-95942857D02*
X90654819Y-96561904D01*
X90654819Y-96561904D02*
X91035771Y-96228571D01*
X91035771Y-96228571D02*
X91035771Y-96371428D01*
X91035771Y-96371428D02*
X91083390Y-96466666D01*
X91083390Y-96466666D02*
X91131009Y-96514285D01*
X91131009Y-96514285D02*
X91226247Y-96561904D01*
X91226247Y-96561904D02*
X91464342Y-96561904D01*
X91464342Y-96561904D02*
X91559580Y-96514285D01*
X91559580Y-96514285D02*
X91607200Y-96466666D01*
X91607200Y-96466666D02*
X91654819Y-96371428D01*
X91654819Y-96371428D02*
X91654819Y-96085714D01*
X91654819Y-96085714D02*
X91607200Y-95990476D01*
X91607200Y-95990476D02*
X91559580Y-95942857D01*
X314654819Y-113361905D02*
X313654819Y-113361905D01*
X313654819Y-113361905D02*
X313654819Y-113600000D01*
X313654819Y-113600000D02*
X313702438Y-113742857D01*
X313702438Y-113742857D02*
X313797676Y-113838095D01*
X313797676Y-113838095D02*
X313892914Y-113885714D01*
X313892914Y-113885714D02*
X314083390Y-113933333D01*
X314083390Y-113933333D02*
X314226247Y-113933333D01*
X314226247Y-113933333D02*
X314416723Y-113885714D01*
X314416723Y-113885714D02*
X314511961Y-113838095D01*
X314511961Y-113838095D02*
X314607200Y-113742857D01*
X314607200Y-113742857D02*
X314654819Y-113600000D01*
X314654819Y-113600000D02*
X314654819Y-113361905D01*
X313654819Y-114266667D02*
X313654819Y-114885714D01*
X313654819Y-114885714D02*
X314035771Y-114552381D01*
X314035771Y-114552381D02*
X314035771Y-114695238D01*
X314035771Y-114695238D02*
X314083390Y-114790476D01*
X314083390Y-114790476D02*
X314131009Y-114838095D01*
X314131009Y-114838095D02*
X314226247Y-114885714D01*
X314226247Y-114885714D02*
X314464342Y-114885714D01*
X314464342Y-114885714D02*
X314559580Y-114838095D01*
X314559580Y-114838095D02*
X314607200Y-114790476D01*
X314607200Y-114790476D02*
X314654819Y-114695238D01*
X314654819Y-114695238D02*
X314654819Y-114409524D01*
X314654819Y-114409524D02*
X314607200Y-114314286D01*
X314607200Y-114314286D02*
X314559580Y-114266667D01*
X91654819Y-113085714D02*
X90654819Y-113085714D01*
X90654819Y-113085714D02*
X90654819Y-113323809D01*
X90654819Y-113323809D02*
X90702438Y-113466666D01*
X90702438Y-113466666D02*
X90797676Y-113561904D01*
X90797676Y-113561904D02*
X90892914Y-113609523D01*
X90892914Y-113609523D02*
X91083390Y-113657142D01*
X91083390Y-113657142D02*
X91226247Y-113657142D01*
X91226247Y-113657142D02*
X91416723Y-113609523D01*
X91416723Y-113609523D02*
X91511961Y-113561904D01*
X91511961Y-113561904D02*
X91607200Y-113466666D01*
X91607200Y-113466666D02*
X91654819Y-113323809D01*
X91654819Y-113323809D02*
X91654819Y-113085714D01*
X90750057Y-114038095D02*
X90702438Y-114085714D01*
X90702438Y-114085714D02*
X90654819Y-114180952D01*
X90654819Y-114180952D02*
X90654819Y-114419047D01*
X90654819Y-114419047D02*
X90702438Y-114514285D01*
X90702438Y-114514285D02*
X90750057Y-114561904D01*
X90750057Y-114561904D02*
X90845295Y-114609523D01*
X90845295Y-114609523D02*
X90940533Y-114609523D01*
X90940533Y-114609523D02*
X91083390Y-114561904D01*
X91083390Y-114561904D02*
X91654819Y-113990476D01*
X91654819Y-113990476D02*
X91654819Y-114609523D01*
X90988152Y-115466666D02*
X91654819Y-115466666D01*
X90607200Y-115228571D02*
X91321485Y-114990476D01*
X91321485Y-114990476D02*
X91321485Y-115609523D01*
D11*
X340065616Y-131649519D02*
X340084364Y-131668267D01*
X340084364Y-131668267D02*
X340140607Y-131687014D01*
X340140607Y-131687014D02*
X340178102Y-131687014D01*
X340178102Y-131687014D02*
X340234345Y-131668267D01*
X340234345Y-131668267D02*
X340271841Y-131630771D01*
X340271841Y-131630771D02*
X340290588Y-131593276D01*
X340290588Y-131593276D02*
X340309336Y-131518285D01*
X340309336Y-131518285D02*
X340309336Y-131462042D01*
X340309336Y-131462042D02*
X340290588Y-131387052D01*
X340290588Y-131387052D02*
X340271841Y-131349556D01*
X340271841Y-131349556D02*
X340234345Y-131312061D01*
X340234345Y-131312061D02*
X340178102Y-131293313D01*
X340178102Y-131293313D02*
X340140607Y-131293313D01*
X340140607Y-131293313D02*
X340084364Y-131312061D01*
X340084364Y-131312061D02*
X340065616Y-131330809D01*
X339915635Y-131330809D02*
X339896887Y-131312061D01*
X339896887Y-131312061D02*
X339859392Y-131293313D01*
X339859392Y-131293313D02*
X339765654Y-131293313D01*
X339765654Y-131293313D02*
X339728158Y-131312061D01*
X339728158Y-131312061D02*
X339709411Y-131330809D01*
X339709411Y-131330809D02*
X339690663Y-131368304D01*
X339690663Y-131368304D02*
X339690663Y-131405799D01*
X339690663Y-131405799D02*
X339709411Y-131462042D01*
X339709411Y-131462042D02*
X339934383Y-131687014D01*
X339934383Y-131687014D02*
X339690663Y-131687014D01*
D10*
X262454819Y-80785714D02*
X261454819Y-80785714D01*
X261454819Y-80785714D02*
X261454819Y-81023809D01*
X261454819Y-81023809D02*
X261502438Y-81166666D01*
X261502438Y-81166666D02*
X261597676Y-81261904D01*
X261597676Y-81261904D02*
X261692914Y-81309523D01*
X261692914Y-81309523D02*
X261883390Y-81357142D01*
X261883390Y-81357142D02*
X262026247Y-81357142D01*
X262026247Y-81357142D02*
X262216723Y-81309523D01*
X262216723Y-81309523D02*
X262311961Y-81261904D01*
X262311961Y-81261904D02*
X262407200Y-81166666D01*
X262407200Y-81166666D02*
X262454819Y-81023809D01*
X262454819Y-81023809D02*
X262454819Y-80785714D01*
X262454819Y-82309523D02*
X262454819Y-81738095D01*
X262454819Y-82023809D02*
X261454819Y-82023809D01*
X261454819Y-82023809D02*
X261597676Y-81928571D01*
X261597676Y-81928571D02*
X261692914Y-81833333D01*
X261692914Y-81833333D02*
X261740533Y-81738095D01*
X261454819Y-82642857D02*
X261454819Y-83261904D01*
X261454819Y-83261904D02*
X261835771Y-82928571D01*
X261835771Y-82928571D02*
X261835771Y-83071428D01*
X261835771Y-83071428D02*
X261883390Y-83166666D01*
X261883390Y-83166666D02*
X261931009Y-83214285D01*
X261931009Y-83214285D02*
X262026247Y-83261904D01*
X262026247Y-83261904D02*
X262264342Y-83261904D01*
X262264342Y-83261904D02*
X262359580Y-83214285D01*
X262359580Y-83214285D02*
X262407200Y-83166666D01*
X262407200Y-83166666D02*
X262454819Y-83071428D01*
X262454819Y-83071428D02*
X262454819Y-82785714D01*
X262454819Y-82785714D02*
X262407200Y-82690476D01*
X262407200Y-82690476D02*
X262359580Y-82642857D01*
X297754819Y-131785714D02*
X296754819Y-131785714D01*
X296754819Y-131785714D02*
X296754819Y-132023809D01*
X296754819Y-132023809D02*
X296802438Y-132166666D01*
X296802438Y-132166666D02*
X296897676Y-132261904D01*
X296897676Y-132261904D02*
X296992914Y-132309523D01*
X296992914Y-132309523D02*
X297183390Y-132357142D01*
X297183390Y-132357142D02*
X297326247Y-132357142D01*
X297326247Y-132357142D02*
X297516723Y-132309523D01*
X297516723Y-132309523D02*
X297611961Y-132261904D01*
X297611961Y-132261904D02*
X297707200Y-132166666D01*
X297707200Y-132166666D02*
X297754819Y-132023809D01*
X297754819Y-132023809D02*
X297754819Y-131785714D01*
X297754819Y-133309523D02*
X297754819Y-132738095D01*
X297754819Y-133023809D02*
X296754819Y-133023809D01*
X296754819Y-133023809D02*
X296897676Y-132928571D01*
X296897676Y-132928571D02*
X296992914Y-132833333D01*
X296992914Y-132833333D02*
X297040533Y-132738095D01*
X296850057Y-133690476D02*
X296802438Y-133738095D01*
X296802438Y-133738095D02*
X296754819Y-133833333D01*
X296754819Y-133833333D02*
X296754819Y-134071428D01*
X296754819Y-134071428D02*
X296802438Y-134166666D01*
X296802438Y-134166666D02*
X296850057Y-134214285D01*
X296850057Y-134214285D02*
X296945295Y-134261904D01*
X296945295Y-134261904D02*
X297040533Y-134261904D01*
X297040533Y-134261904D02*
X297183390Y-134214285D01*
X297183390Y-134214285D02*
X297754819Y-133642857D01*
X297754819Y-133642857D02*
X297754819Y-134261904D01*
X108554819Y-133585714D02*
X107554819Y-133585714D01*
X107554819Y-133585714D02*
X107554819Y-133823809D01*
X107554819Y-133823809D02*
X107602438Y-133966666D01*
X107602438Y-133966666D02*
X107697676Y-134061904D01*
X107697676Y-134061904D02*
X107792914Y-134109523D01*
X107792914Y-134109523D02*
X107983390Y-134157142D01*
X107983390Y-134157142D02*
X108126247Y-134157142D01*
X108126247Y-134157142D02*
X108316723Y-134109523D01*
X108316723Y-134109523D02*
X108411961Y-134061904D01*
X108411961Y-134061904D02*
X108507200Y-133966666D01*
X108507200Y-133966666D02*
X108554819Y-133823809D01*
X108554819Y-133823809D02*
X108554819Y-133585714D01*
X107554819Y-134490476D02*
X107554819Y-135109523D01*
X107554819Y-135109523D02*
X107935771Y-134776190D01*
X107935771Y-134776190D02*
X107935771Y-134919047D01*
X107935771Y-134919047D02*
X107983390Y-135014285D01*
X107983390Y-135014285D02*
X108031009Y-135061904D01*
X108031009Y-135061904D02*
X108126247Y-135109523D01*
X108126247Y-135109523D02*
X108364342Y-135109523D01*
X108364342Y-135109523D02*
X108459580Y-135061904D01*
X108459580Y-135061904D02*
X108507200Y-135014285D01*
X108507200Y-135014285D02*
X108554819Y-134919047D01*
X108554819Y-134919047D02*
X108554819Y-134633333D01*
X108554819Y-134633333D02*
X108507200Y-134538095D01*
X108507200Y-134538095D02*
X108459580Y-134490476D01*
X107554819Y-135442857D02*
X107554819Y-136061904D01*
X107554819Y-136061904D02*
X107935771Y-135728571D01*
X107935771Y-135728571D02*
X107935771Y-135871428D01*
X107935771Y-135871428D02*
X107983390Y-135966666D01*
X107983390Y-135966666D02*
X108031009Y-136014285D01*
X108031009Y-136014285D02*
X108126247Y-136061904D01*
X108126247Y-136061904D02*
X108364342Y-136061904D01*
X108364342Y-136061904D02*
X108459580Y-136014285D01*
X108459580Y-136014285D02*
X108507200Y-135966666D01*
X108507200Y-135966666D02*
X108554819Y-135871428D01*
X108554819Y-135871428D02*
X108554819Y-135585714D01*
X108554819Y-135585714D02*
X108507200Y-135490476D01*
X108507200Y-135490476D02*
X108459580Y-135442857D01*
X337954819Y-145461905D02*
X336954819Y-145461905D01*
X336954819Y-145461905D02*
X336954819Y-145700000D01*
X336954819Y-145700000D02*
X337002438Y-145842857D01*
X337002438Y-145842857D02*
X337097676Y-145938095D01*
X337097676Y-145938095D02*
X337192914Y-145985714D01*
X337192914Y-145985714D02*
X337383390Y-146033333D01*
X337383390Y-146033333D02*
X337526247Y-146033333D01*
X337526247Y-146033333D02*
X337716723Y-145985714D01*
X337716723Y-145985714D02*
X337811961Y-145938095D01*
X337811961Y-145938095D02*
X337907200Y-145842857D01*
X337907200Y-145842857D02*
X337954819Y-145700000D01*
X337954819Y-145700000D02*
X337954819Y-145461905D01*
X337288152Y-146890476D02*
X337954819Y-146890476D01*
X336907200Y-146652381D02*
X337621485Y-146414286D01*
X337621485Y-146414286D02*
X337621485Y-147033333D01*
X115454819Y-80785714D02*
X114454819Y-80785714D01*
X114454819Y-80785714D02*
X114454819Y-81023809D01*
X114454819Y-81023809D02*
X114502438Y-81166666D01*
X114502438Y-81166666D02*
X114597676Y-81261904D01*
X114597676Y-81261904D02*
X114692914Y-81309523D01*
X114692914Y-81309523D02*
X114883390Y-81357142D01*
X114883390Y-81357142D02*
X115026247Y-81357142D01*
X115026247Y-81357142D02*
X115216723Y-81309523D01*
X115216723Y-81309523D02*
X115311961Y-81261904D01*
X115311961Y-81261904D02*
X115407200Y-81166666D01*
X115407200Y-81166666D02*
X115454819Y-81023809D01*
X115454819Y-81023809D02*
X115454819Y-80785714D01*
X114550057Y-81738095D02*
X114502438Y-81785714D01*
X114502438Y-81785714D02*
X114454819Y-81880952D01*
X114454819Y-81880952D02*
X114454819Y-82119047D01*
X114454819Y-82119047D02*
X114502438Y-82214285D01*
X114502438Y-82214285D02*
X114550057Y-82261904D01*
X114550057Y-82261904D02*
X114645295Y-82309523D01*
X114645295Y-82309523D02*
X114740533Y-82309523D01*
X114740533Y-82309523D02*
X114883390Y-82261904D01*
X114883390Y-82261904D02*
X115454819Y-81690476D01*
X115454819Y-81690476D02*
X115454819Y-82309523D01*
X114454819Y-83166666D02*
X114454819Y-82976190D01*
X114454819Y-82976190D02*
X114502438Y-82880952D01*
X114502438Y-82880952D02*
X114550057Y-82833333D01*
X114550057Y-82833333D02*
X114692914Y-82738095D01*
X114692914Y-82738095D02*
X114883390Y-82690476D01*
X114883390Y-82690476D02*
X115264342Y-82690476D01*
X115264342Y-82690476D02*
X115359580Y-82738095D01*
X115359580Y-82738095D02*
X115407200Y-82785714D01*
X115407200Y-82785714D02*
X115454819Y-82880952D01*
X115454819Y-82880952D02*
X115454819Y-83071428D01*
X115454819Y-83071428D02*
X115407200Y-83166666D01*
X115407200Y-83166666D02*
X115359580Y-83214285D01*
X115359580Y-83214285D02*
X115264342Y-83261904D01*
X115264342Y-83261904D02*
X115026247Y-83261904D01*
X115026247Y-83261904D02*
X114931009Y-83214285D01*
X114931009Y-83214285D02*
X114883390Y-83166666D01*
X114883390Y-83166666D02*
X114835771Y-83071428D01*
X114835771Y-83071428D02*
X114835771Y-82880952D01*
X114835771Y-82880952D02*
X114883390Y-82785714D01*
X114883390Y-82785714D02*
X114931009Y-82738095D01*
X114931009Y-82738095D02*
X115026247Y-82690476D01*
X129754819Y-130885714D02*
X128754819Y-130885714D01*
X128754819Y-130885714D02*
X128754819Y-131123809D01*
X128754819Y-131123809D02*
X128802438Y-131266666D01*
X128802438Y-131266666D02*
X128897676Y-131361904D01*
X128897676Y-131361904D02*
X128992914Y-131409523D01*
X128992914Y-131409523D02*
X129183390Y-131457142D01*
X129183390Y-131457142D02*
X129326247Y-131457142D01*
X129326247Y-131457142D02*
X129516723Y-131409523D01*
X129516723Y-131409523D02*
X129611961Y-131361904D01*
X129611961Y-131361904D02*
X129707200Y-131266666D01*
X129707200Y-131266666D02*
X129754819Y-131123809D01*
X129754819Y-131123809D02*
X129754819Y-130885714D01*
X128754819Y-131790476D02*
X128754819Y-132409523D01*
X128754819Y-132409523D02*
X129135771Y-132076190D01*
X129135771Y-132076190D02*
X129135771Y-132219047D01*
X129135771Y-132219047D02*
X129183390Y-132314285D01*
X129183390Y-132314285D02*
X129231009Y-132361904D01*
X129231009Y-132361904D02*
X129326247Y-132409523D01*
X129326247Y-132409523D02*
X129564342Y-132409523D01*
X129564342Y-132409523D02*
X129659580Y-132361904D01*
X129659580Y-132361904D02*
X129707200Y-132314285D01*
X129707200Y-132314285D02*
X129754819Y-132219047D01*
X129754819Y-132219047D02*
X129754819Y-131933333D01*
X129754819Y-131933333D02*
X129707200Y-131838095D01*
X129707200Y-131838095D02*
X129659580Y-131790476D01*
X128754819Y-132742857D02*
X128754819Y-133409523D01*
X128754819Y-133409523D02*
X129754819Y-132980952D01*
X276654819Y-80885714D02*
X275654819Y-80885714D01*
X275654819Y-80885714D02*
X275654819Y-81123809D01*
X275654819Y-81123809D02*
X275702438Y-81266666D01*
X275702438Y-81266666D02*
X275797676Y-81361904D01*
X275797676Y-81361904D02*
X275892914Y-81409523D01*
X275892914Y-81409523D02*
X276083390Y-81457142D01*
X276083390Y-81457142D02*
X276226247Y-81457142D01*
X276226247Y-81457142D02*
X276416723Y-81409523D01*
X276416723Y-81409523D02*
X276511961Y-81361904D01*
X276511961Y-81361904D02*
X276607200Y-81266666D01*
X276607200Y-81266666D02*
X276654819Y-81123809D01*
X276654819Y-81123809D02*
X276654819Y-80885714D01*
X276654819Y-82409523D02*
X276654819Y-81838095D01*
X276654819Y-82123809D02*
X275654819Y-82123809D01*
X275654819Y-82123809D02*
X275797676Y-82028571D01*
X275797676Y-82028571D02*
X275892914Y-81933333D01*
X275892914Y-81933333D02*
X275940533Y-81838095D01*
X275654819Y-83028571D02*
X275654819Y-83123809D01*
X275654819Y-83123809D02*
X275702438Y-83219047D01*
X275702438Y-83219047D02*
X275750057Y-83266666D01*
X275750057Y-83266666D02*
X275845295Y-83314285D01*
X275845295Y-83314285D02*
X276035771Y-83361904D01*
X276035771Y-83361904D02*
X276273866Y-83361904D01*
X276273866Y-83361904D02*
X276464342Y-83314285D01*
X276464342Y-83314285D02*
X276559580Y-83266666D01*
X276559580Y-83266666D02*
X276607200Y-83219047D01*
X276607200Y-83219047D02*
X276654819Y-83123809D01*
X276654819Y-83123809D02*
X276654819Y-83028571D01*
X276654819Y-83028571D02*
X276607200Y-82933333D01*
X276607200Y-82933333D02*
X276559580Y-82885714D01*
X276559580Y-82885714D02*
X276464342Y-82838095D01*
X276464342Y-82838095D02*
X276273866Y-82790476D01*
X276273866Y-82790476D02*
X276035771Y-82790476D01*
X276035771Y-82790476D02*
X275845295Y-82838095D01*
X275845295Y-82838095D02*
X275750057Y-82885714D01*
X275750057Y-82885714D02*
X275702438Y-82933333D01*
X275702438Y-82933333D02*
X275654819Y-83028571D01*
X88254819Y-139585714D02*
X87254819Y-139585714D01*
X87254819Y-139585714D02*
X87254819Y-139823809D01*
X87254819Y-139823809D02*
X87302438Y-139966666D01*
X87302438Y-139966666D02*
X87397676Y-140061904D01*
X87397676Y-140061904D02*
X87492914Y-140109523D01*
X87492914Y-140109523D02*
X87683390Y-140157142D01*
X87683390Y-140157142D02*
X87826247Y-140157142D01*
X87826247Y-140157142D02*
X88016723Y-140109523D01*
X88016723Y-140109523D02*
X88111961Y-140061904D01*
X88111961Y-140061904D02*
X88207200Y-139966666D01*
X88207200Y-139966666D02*
X88254819Y-139823809D01*
X88254819Y-139823809D02*
X88254819Y-139585714D01*
X87350057Y-140538095D02*
X87302438Y-140585714D01*
X87302438Y-140585714D02*
X87254819Y-140680952D01*
X87254819Y-140680952D02*
X87254819Y-140919047D01*
X87254819Y-140919047D02*
X87302438Y-141014285D01*
X87302438Y-141014285D02*
X87350057Y-141061904D01*
X87350057Y-141061904D02*
X87445295Y-141109523D01*
X87445295Y-141109523D02*
X87540533Y-141109523D01*
X87540533Y-141109523D02*
X87683390Y-141061904D01*
X87683390Y-141061904D02*
X88254819Y-140490476D01*
X88254819Y-140490476D02*
X88254819Y-141109523D01*
X88254819Y-141585714D02*
X88254819Y-141776190D01*
X88254819Y-141776190D02*
X88207200Y-141871428D01*
X88207200Y-141871428D02*
X88159580Y-141919047D01*
X88159580Y-141919047D02*
X88016723Y-142014285D01*
X88016723Y-142014285D02*
X87826247Y-142061904D01*
X87826247Y-142061904D02*
X87445295Y-142061904D01*
X87445295Y-142061904D02*
X87350057Y-142014285D01*
X87350057Y-142014285D02*
X87302438Y-141966666D01*
X87302438Y-141966666D02*
X87254819Y-141871428D01*
X87254819Y-141871428D02*
X87254819Y-141680952D01*
X87254819Y-141680952D02*
X87302438Y-141585714D01*
X87302438Y-141585714D02*
X87350057Y-141538095D01*
X87350057Y-141538095D02*
X87445295Y-141490476D01*
X87445295Y-141490476D02*
X87683390Y-141490476D01*
X87683390Y-141490476D02*
X87778628Y-141538095D01*
X87778628Y-141538095D02*
X87826247Y-141585714D01*
X87826247Y-141585714D02*
X87873866Y-141680952D01*
X87873866Y-141680952D02*
X87873866Y-141871428D01*
X87873866Y-141871428D02*
X87826247Y-141966666D01*
X87826247Y-141966666D02*
X87778628Y-142014285D01*
X87778628Y-142014285D02*
X87683390Y-142061904D01*
X257654819Y-107985714D02*
X256654819Y-107985714D01*
X256654819Y-107985714D02*
X256654819Y-108223809D01*
X256654819Y-108223809D02*
X256702438Y-108366666D01*
X256702438Y-108366666D02*
X256797676Y-108461904D01*
X256797676Y-108461904D02*
X256892914Y-108509523D01*
X256892914Y-108509523D02*
X257083390Y-108557142D01*
X257083390Y-108557142D02*
X257226247Y-108557142D01*
X257226247Y-108557142D02*
X257416723Y-108509523D01*
X257416723Y-108509523D02*
X257511961Y-108461904D01*
X257511961Y-108461904D02*
X257607200Y-108366666D01*
X257607200Y-108366666D02*
X257654819Y-108223809D01*
X257654819Y-108223809D02*
X257654819Y-107985714D01*
X257654819Y-109509523D02*
X257654819Y-108938095D01*
X257654819Y-109223809D02*
X256654819Y-109223809D01*
X256654819Y-109223809D02*
X256797676Y-109128571D01*
X256797676Y-109128571D02*
X256892914Y-109033333D01*
X256892914Y-109033333D02*
X256940533Y-108938095D01*
X256654819Y-110414285D02*
X256654819Y-109938095D01*
X256654819Y-109938095D02*
X257131009Y-109890476D01*
X257131009Y-109890476D02*
X257083390Y-109938095D01*
X257083390Y-109938095D02*
X257035771Y-110033333D01*
X257035771Y-110033333D02*
X257035771Y-110271428D01*
X257035771Y-110271428D02*
X257083390Y-110366666D01*
X257083390Y-110366666D02*
X257131009Y-110414285D01*
X257131009Y-110414285D02*
X257226247Y-110461904D01*
X257226247Y-110461904D02*
X257464342Y-110461904D01*
X257464342Y-110461904D02*
X257559580Y-110414285D01*
X257559580Y-110414285D02*
X257607200Y-110366666D01*
X257607200Y-110366666D02*
X257654819Y-110271428D01*
X257654819Y-110271428D02*
X257654819Y-110033333D01*
X257654819Y-110033333D02*
X257607200Y-109938095D01*
X257607200Y-109938095D02*
X257559580Y-109890476D01*
X186654819Y-114185714D02*
X185654819Y-114185714D01*
X185654819Y-114185714D02*
X185654819Y-114423809D01*
X185654819Y-114423809D02*
X185702438Y-114566666D01*
X185702438Y-114566666D02*
X185797676Y-114661904D01*
X185797676Y-114661904D02*
X185892914Y-114709523D01*
X185892914Y-114709523D02*
X186083390Y-114757142D01*
X186083390Y-114757142D02*
X186226247Y-114757142D01*
X186226247Y-114757142D02*
X186416723Y-114709523D01*
X186416723Y-114709523D02*
X186511961Y-114661904D01*
X186511961Y-114661904D02*
X186607200Y-114566666D01*
X186607200Y-114566666D02*
X186654819Y-114423809D01*
X186654819Y-114423809D02*
X186654819Y-114185714D01*
X185988152Y-115614285D02*
X186654819Y-115614285D01*
X185607200Y-115376190D02*
X186321485Y-115138095D01*
X186321485Y-115138095D02*
X186321485Y-115757142D01*
X185750057Y-116090476D02*
X185702438Y-116138095D01*
X185702438Y-116138095D02*
X185654819Y-116233333D01*
X185654819Y-116233333D02*
X185654819Y-116471428D01*
X185654819Y-116471428D02*
X185702438Y-116566666D01*
X185702438Y-116566666D02*
X185750057Y-116614285D01*
X185750057Y-116614285D02*
X185845295Y-116661904D01*
X185845295Y-116661904D02*
X185940533Y-116661904D01*
X185940533Y-116661904D02*
X186083390Y-116614285D01*
X186083390Y-116614285D02*
X186654819Y-116042857D01*
X186654819Y-116042857D02*
X186654819Y-116661904D01*
X295454819Y-108161905D02*
X294454819Y-108161905D01*
X294454819Y-108161905D02*
X294454819Y-108400000D01*
X294454819Y-108400000D02*
X294502438Y-108542857D01*
X294502438Y-108542857D02*
X294597676Y-108638095D01*
X294597676Y-108638095D02*
X294692914Y-108685714D01*
X294692914Y-108685714D02*
X294883390Y-108733333D01*
X294883390Y-108733333D02*
X295026247Y-108733333D01*
X295026247Y-108733333D02*
X295216723Y-108685714D01*
X295216723Y-108685714D02*
X295311961Y-108638095D01*
X295311961Y-108638095D02*
X295407200Y-108542857D01*
X295407200Y-108542857D02*
X295454819Y-108400000D01*
X295454819Y-108400000D02*
X295454819Y-108161905D01*
X294454819Y-109066667D02*
X294454819Y-109733333D01*
X294454819Y-109733333D02*
X295454819Y-109304762D01*
X319454819Y-86261905D02*
X318454819Y-86261905D01*
X318454819Y-86261905D02*
X318454819Y-86500000D01*
X318454819Y-86500000D02*
X318502438Y-86642857D01*
X318502438Y-86642857D02*
X318597676Y-86738095D01*
X318597676Y-86738095D02*
X318692914Y-86785714D01*
X318692914Y-86785714D02*
X318883390Y-86833333D01*
X318883390Y-86833333D02*
X319026247Y-86833333D01*
X319026247Y-86833333D02*
X319216723Y-86785714D01*
X319216723Y-86785714D02*
X319311961Y-86738095D01*
X319311961Y-86738095D02*
X319407200Y-86642857D01*
X319407200Y-86642857D02*
X319454819Y-86500000D01*
X319454819Y-86500000D02*
X319454819Y-86261905D01*
X319454819Y-87785714D02*
X319454819Y-87214286D01*
X319454819Y-87500000D02*
X318454819Y-87500000D01*
X318454819Y-87500000D02*
X318597676Y-87404762D01*
X318597676Y-87404762D02*
X318692914Y-87309524D01*
X318692914Y-87309524D02*
X318740533Y-87214286D01*
X314554819Y-94061905D02*
X313554819Y-94061905D01*
X313554819Y-94061905D02*
X313554819Y-94300000D01*
X313554819Y-94300000D02*
X313602438Y-94442857D01*
X313602438Y-94442857D02*
X313697676Y-94538095D01*
X313697676Y-94538095D02*
X313792914Y-94585714D01*
X313792914Y-94585714D02*
X313983390Y-94633333D01*
X313983390Y-94633333D02*
X314126247Y-94633333D01*
X314126247Y-94633333D02*
X314316723Y-94585714D01*
X314316723Y-94585714D02*
X314411961Y-94538095D01*
X314411961Y-94538095D02*
X314507200Y-94442857D01*
X314507200Y-94442857D02*
X314554819Y-94300000D01*
X314554819Y-94300000D02*
X314554819Y-94061905D01*
X313650057Y-95014286D02*
X313602438Y-95061905D01*
X313602438Y-95061905D02*
X313554819Y-95157143D01*
X313554819Y-95157143D02*
X313554819Y-95395238D01*
X313554819Y-95395238D02*
X313602438Y-95490476D01*
X313602438Y-95490476D02*
X313650057Y-95538095D01*
X313650057Y-95538095D02*
X313745295Y-95585714D01*
X313745295Y-95585714D02*
X313840533Y-95585714D01*
X313840533Y-95585714D02*
X313983390Y-95538095D01*
X313983390Y-95538095D02*
X314554819Y-94966667D01*
X314554819Y-94966667D02*
X314554819Y-95585714D01*
X224454819Y-105785714D02*
X223454819Y-105785714D01*
X223454819Y-105785714D02*
X223454819Y-106023809D01*
X223454819Y-106023809D02*
X223502438Y-106166666D01*
X223502438Y-106166666D02*
X223597676Y-106261904D01*
X223597676Y-106261904D02*
X223692914Y-106309523D01*
X223692914Y-106309523D02*
X223883390Y-106357142D01*
X223883390Y-106357142D02*
X224026247Y-106357142D01*
X224026247Y-106357142D02*
X224216723Y-106309523D01*
X224216723Y-106309523D02*
X224311961Y-106261904D01*
X224311961Y-106261904D02*
X224407200Y-106166666D01*
X224407200Y-106166666D02*
X224454819Y-106023809D01*
X224454819Y-106023809D02*
X224454819Y-105785714D01*
X223550057Y-106738095D02*
X223502438Y-106785714D01*
X223502438Y-106785714D02*
X223454819Y-106880952D01*
X223454819Y-106880952D02*
X223454819Y-107119047D01*
X223454819Y-107119047D02*
X223502438Y-107214285D01*
X223502438Y-107214285D02*
X223550057Y-107261904D01*
X223550057Y-107261904D02*
X223645295Y-107309523D01*
X223645295Y-107309523D02*
X223740533Y-107309523D01*
X223740533Y-107309523D02*
X223883390Y-107261904D01*
X223883390Y-107261904D02*
X224454819Y-106690476D01*
X224454819Y-106690476D02*
X224454819Y-107309523D01*
X223454819Y-107928571D02*
X223454819Y-108023809D01*
X223454819Y-108023809D02*
X223502438Y-108119047D01*
X223502438Y-108119047D02*
X223550057Y-108166666D01*
X223550057Y-108166666D02*
X223645295Y-108214285D01*
X223645295Y-108214285D02*
X223835771Y-108261904D01*
X223835771Y-108261904D02*
X224073866Y-108261904D01*
X224073866Y-108261904D02*
X224264342Y-108214285D01*
X224264342Y-108214285D02*
X224359580Y-108166666D01*
X224359580Y-108166666D02*
X224407200Y-108119047D01*
X224407200Y-108119047D02*
X224454819Y-108023809D01*
X224454819Y-108023809D02*
X224454819Y-107928571D01*
X224454819Y-107928571D02*
X224407200Y-107833333D01*
X224407200Y-107833333D02*
X224359580Y-107785714D01*
X224359580Y-107785714D02*
X224264342Y-107738095D01*
X224264342Y-107738095D02*
X224073866Y-107690476D01*
X224073866Y-107690476D02*
X223835771Y-107690476D01*
X223835771Y-107690476D02*
X223645295Y-107738095D01*
X223645295Y-107738095D02*
X223550057Y-107785714D01*
X223550057Y-107785714D02*
X223502438Y-107833333D01*
X223502438Y-107833333D02*
X223454819Y-107928571D01*
X73954819Y-116285714D02*
X72954819Y-116285714D01*
X72954819Y-116285714D02*
X72954819Y-116523809D01*
X72954819Y-116523809D02*
X73002438Y-116666666D01*
X73002438Y-116666666D02*
X73097676Y-116761904D01*
X73097676Y-116761904D02*
X73192914Y-116809523D01*
X73192914Y-116809523D02*
X73383390Y-116857142D01*
X73383390Y-116857142D02*
X73526247Y-116857142D01*
X73526247Y-116857142D02*
X73716723Y-116809523D01*
X73716723Y-116809523D02*
X73811961Y-116761904D01*
X73811961Y-116761904D02*
X73907200Y-116666666D01*
X73907200Y-116666666D02*
X73954819Y-116523809D01*
X73954819Y-116523809D02*
X73954819Y-116285714D01*
X73288152Y-117714285D02*
X73954819Y-117714285D01*
X72907200Y-117476190D02*
X73621485Y-117238095D01*
X73621485Y-117238095D02*
X73621485Y-117857142D01*
X72954819Y-118142857D02*
X72954819Y-118761904D01*
X72954819Y-118761904D02*
X73335771Y-118428571D01*
X73335771Y-118428571D02*
X73335771Y-118571428D01*
X73335771Y-118571428D02*
X73383390Y-118666666D01*
X73383390Y-118666666D02*
X73431009Y-118714285D01*
X73431009Y-118714285D02*
X73526247Y-118761904D01*
X73526247Y-118761904D02*
X73764342Y-118761904D01*
X73764342Y-118761904D02*
X73859580Y-118714285D01*
X73859580Y-118714285D02*
X73907200Y-118666666D01*
X73907200Y-118666666D02*
X73954819Y-118571428D01*
X73954819Y-118571428D02*
X73954819Y-118285714D01*
X73954819Y-118285714D02*
X73907200Y-118190476D01*
X73907200Y-118190476D02*
X73859580Y-118142857D01*
X172454819Y-96785714D02*
X171454819Y-96785714D01*
X171454819Y-96785714D02*
X171454819Y-97023809D01*
X171454819Y-97023809D02*
X171502438Y-97166666D01*
X171502438Y-97166666D02*
X171597676Y-97261904D01*
X171597676Y-97261904D02*
X171692914Y-97309523D01*
X171692914Y-97309523D02*
X171883390Y-97357142D01*
X171883390Y-97357142D02*
X172026247Y-97357142D01*
X172026247Y-97357142D02*
X172216723Y-97309523D01*
X172216723Y-97309523D02*
X172311961Y-97261904D01*
X172311961Y-97261904D02*
X172407200Y-97166666D01*
X172407200Y-97166666D02*
X172454819Y-97023809D01*
X172454819Y-97023809D02*
X172454819Y-96785714D01*
X171454819Y-97690476D02*
X171454819Y-98309523D01*
X171454819Y-98309523D02*
X171835771Y-97976190D01*
X171835771Y-97976190D02*
X171835771Y-98119047D01*
X171835771Y-98119047D02*
X171883390Y-98214285D01*
X171883390Y-98214285D02*
X171931009Y-98261904D01*
X171931009Y-98261904D02*
X172026247Y-98309523D01*
X172026247Y-98309523D02*
X172264342Y-98309523D01*
X172264342Y-98309523D02*
X172359580Y-98261904D01*
X172359580Y-98261904D02*
X172407200Y-98214285D01*
X172407200Y-98214285D02*
X172454819Y-98119047D01*
X172454819Y-98119047D02*
X172454819Y-97833333D01*
X172454819Y-97833333D02*
X172407200Y-97738095D01*
X172407200Y-97738095D02*
X172359580Y-97690476D01*
X171883390Y-98880952D02*
X171835771Y-98785714D01*
X171835771Y-98785714D02*
X171788152Y-98738095D01*
X171788152Y-98738095D02*
X171692914Y-98690476D01*
X171692914Y-98690476D02*
X171645295Y-98690476D01*
X171645295Y-98690476D02*
X171550057Y-98738095D01*
X171550057Y-98738095D02*
X171502438Y-98785714D01*
X171502438Y-98785714D02*
X171454819Y-98880952D01*
X171454819Y-98880952D02*
X171454819Y-99071428D01*
X171454819Y-99071428D02*
X171502438Y-99166666D01*
X171502438Y-99166666D02*
X171550057Y-99214285D01*
X171550057Y-99214285D02*
X171645295Y-99261904D01*
X171645295Y-99261904D02*
X171692914Y-99261904D01*
X171692914Y-99261904D02*
X171788152Y-99214285D01*
X171788152Y-99214285D02*
X171835771Y-99166666D01*
X171835771Y-99166666D02*
X171883390Y-99071428D01*
X171883390Y-99071428D02*
X171883390Y-98880952D01*
X171883390Y-98880952D02*
X171931009Y-98785714D01*
X171931009Y-98785714D02*
X171978628Y-98738095D01*
X171978628Y-98738095D02*
X172073866Y-98690476D01*
X172073866Y-98690476D02*
X172264342Y-98690476D01*
X172264342Y-98690476D02*
X172359580Y-98738095D01*
X172359580Y-98738095D02*
X172407200Y-98785714D01*
X172407200Y-98785714D02*
X172454819Y-98880952D01*
X172454819Y-98880952D02*
X172454819Y-99071428D01*
X172454819Y-99071428D02*
X172407200Y-99166666D01*
X172407200Y-99166666D02*
X172359580Y-99214285D01*
X172359580Y-99214285D02*
X172264342Y-99261904D01*
X172264342Y-99261904D02*
X172073866Y-99261904D01*
X172073866Y-99261904D02*
X171978628Y-99214285D01*
X171978628Y-99214285D02*
X171931009Y-99166666D01*
X171931009Y-99166666D02*
X171883390Y-99071428D01*
D11*
X77065616Y-128129519D02*
X77084364Y-128148267D01*
X77084364Y-128148267D02*
X77140607Y-128167014D01*
X77140607Y-128167014D02*
X77178102Y-128167014D01*
X77178102Y-128167014D02*
X77234345Y-128148267D01*
X77234345Y-128148267D02*
X77271841Y-128110771D01*
X77271841Y-128110771D02*
X77290588Y-128073276D01*
X77290588Y-128073276D02*
X77309336Y-127998285D01*
X77309336Y-127998285D02*
X77309336Y-127942042D01*
X77309336Y-127942042D02*
X77290588Y-127867052D01*
X77290588Y-127867052D02*
X77271841Y-127829556D01*
X77271841Y-127829556D02*
X77234345Y-127792061D01*
X77234345Y-127792061D02*
X77178102Y-127773313D01*
X77178102Y-127773313D02*
X77140607Y-127773313D01*
X77140607Y-127773313D02*
X77084364Y-127792061D01*
X77084364Y-127792061D02*
X77065616Y-127810809D01*
X76934383Y-127773313D02*
X76690663Y-127773313D01*
X76690663Y-127773313D02*
X76821897Y-127923295D01*
X76821897Y-127923295D02*
X76765654Y-127923295D01*
X76765654Y-127923295D02*
X76728158Y-127942042D01*
X76728158Y-127942042D02*
X76709411Y-127960790D01*
X76709411Y-127960790D02*
X76690663Y-127998285D01*
X76690663Y-127998285D02*
X76690663Y-128092024D01*
X76690663Y-128092024D02*
X76709411Y-128129519D01*
X76709411Y-128129519D02*
X76728158Y-128148267D01*
X76728158Y-128148267D02*
X76765654Y-128167014D01*
X76765654Y-128167014D02*
X76878140Y-128167014D01*
X76878140Y-128167014D02*
X76915635Y-128148267D01*
X76915635Y-128148267D02*
X76934383Y-128129519D01*
D10*
X279454819Y-130985714D02*
X278454819Y-130985714D01*
X278454819Y-130985714D02*
X278454819Y-131223809D01*
X278454819Y-131223809D02*
X278502438Y-131366666D01*
X278502438Y-131366666D02*
X278597676Y-131461904D01*
X278597676Y-131461904D02*
X278692914Y-131509523D01*
X278692914Y-131509523D02*
X278883390Y-131557142D01*
X278883390Y-131557142D02*
X279026247Y-131557142D01*
X279026247Y-131557142D02*
X279216723Y-131509523D01*
X279216723Y-131509523D02*
X279311961Y-131461904D01*
X279311961Y-131461904D02*
X279407200Y-131366666D01*
X279407200Y-131366666D02*
X279454819Y-131223809D01*
X279454819Y-131223809D02*
X279454819Y-130985714D01*
X279454819Y-132509523D02*
X279454819Y-131938095D01*
X279454819Y-132223809D02*
X278454819Y-132223809D01*
X278454819Y-132223809D02*
X278597676Y-132128571D01*
X278597676Y-132128571D02*
X278692914Y-132033333D01*
X278692914Y-132033333D02*
X278740533Y-131938095D01*
X278454819Y-133366666D02*
X278454819Y-133176190D01*
X278454819Y-133176190D02*
X278502438Y-133080952D01*
X278502438Y-133080952D02*
X278550057Y-133033333D01*
X278550057Y-133033333D02*
X278692914Y-132938095D01*
X278692914Y-132938095D02*
X278883390Y-132890476D01*
X278883390Y-132890476D02*
X279264342Y-132890476D01*
X279264342Y-132890476D02*
X279359580Y-132938095D01*
X279359580Y-132938095D02*
X279407200Y-132985714D01*
X279407200Y-132985714D02*
X279454819Y-133080952D01*
X279454819Y-133080952D02*
X279454819Y-133271428D01*
X279454819Y-133271428D02*
X279407200Y-133366666D01*
X279407200Y-133366666D02*
X279359580Y-133414285D01*
X279359580Y-133414285D02*
X279264342Y-133461904D01*
X279264342Y-133461904D02*
X279026247Y-133461904D01*
X279026247Y-133461904D02*
X278931009Y-133414285D01*
X278931009Y-133414285D02*
X278883390Y-133366666D01*
X278883390Y-133366666D02*
X278835771Y-133271428D01*
X278835771Y-133271428D02*
X278835771Y-133080952D01*
X278835771Y-133080952D02*
X278883390Y-132985714D01*
X278883390Y-132985714D02*
X278931009Y-132938095D01*
X278931009Y-132938095D02*
X279026247Y-132890476D01*
X336714285Y-123454819D02*
X336714285Y-122454819D01*
X336714285Y-122454819D02*
X336476190Y-122454819D01*
X336476190Y-122454819D02*
X336333333Y-122502438D01*
X336333333Y-122502438D02*
X336238095Y-122597676D01*
X336238095Y-122597676D02*
X336190476Y-122692914D01*
X336190476Y-122692914D02*
X336142857Y-122883390D01*
X336142857Y-122883390D02*
X336142857Y-123026247D01*
X336142857Y-123026247D02*
X336190476Y-123216723D01*
X336190476Y-123216723D02*
X336238095Y-123311961D01*
X336238095Y-123311961D02*
X336333333Y-123407200D01*
X336333333Y-123407200D02*
X336476190Y-123454819D01*
X336476190Y-123454819D02*
X336714285Y-123454819D01*
X335285714Y-122788152D02*
X335285714Y-123454819D01*
X335523809Y-122407200D02*
X335761904Y-123121485D01*
X335761904Y-123121485D02*
X335142857Y-123121485D01*
X334333333Y-122788152D02*
X334333333Y-123454819D01*
X334571428Y-122407200D02*
X334809523Y-123121485D01*
X334809523Y-123121485D02*
X334190476Y-123121485D01*
X257654819Y-88885714D02*
X256654819Y-88885714D01*
X256654819Y-88885714D02*
X256654819Y-89123809D01*
X256654819Y-89123809D02*
X256702438Y-89266666D01*
X256702438Y-89266666D02*
X256797676Y-89361904D01*
X256797676Y-89361904D02*
X256892914Y-89409523D01*
X256892914Y-89409523D02*
X257083390Y-89457142D01*
X257083390Y-89457142D02*
X257226247Y-89457142D01*
X257226247Y-89457142D02*
X257416723Y-89409523D01*
X257416723Y-89409523D02*
X257511961Y-89361904D01*
X257511961Y-89361904D02*
X257607200Y-89266666D01*
X257607200Y-89266666D02*
X257654819Y-89123809D01*
X257654819Y-89123809D02*
X257654819Y-88885714D01*
X257654819Y-90409523D02*
X257654819Y-89838095D01*
X257654819Y-90123809D02*
X256654819Y-90123809D01*
X256654819Y-90123809D02*
X256797676Y-90028571D01*
X256797676Y-90028571D02*
X256892914Y-89933333D01*
X256892914Y-89933333D02*
X256940533Y-89838095D01*
X256988152Y-91266666D02*
X257654819Y-91266666D01*
X256607200Y-91028571D02*
X257321485Y-90790476D01*
X257321485Y-90790476D02*
X257321485Y-91409523D01*
X167554819Y-123885714D02*
X166554819Y-123885714D01*
X166554819Y-123885714D02*
X166554819Y-124123809D01*
X166554819Y-124123809D02*
X166602438Y-124266666D01*
X166602438Y-124266666D02*
X166697676Y-124361904D01*
X166697676Y-124361904D02*
X166792914Y-124409523D01*
X166792914Y-124409523D02*
X166983390Y-124457142D01*
X166983390Y-124457142D02*
X167126247Y-124457142D01*
X167126247Y-124457142D02*
X167316723Y-124409523D01*
X167316723Y-124409523D02*
X167411961Y-124361904D01*
X167411961Y-124361904D02*
X167507200Y-124266666D01*
X167507200Y-124266666D02*
X167554819Y-124123809D01*
X167554819Y-124123809D02*
X167554819Y-123885714D01*
X166888152Y-125314285D02*
X167554819Y-125314285D01*
X166507200Y-125076190D02*
X167221485Y-124838095D01*
X167221485Y-124838095D02*
X167221485Y-125457142D01*
X166554819Y-126028571D02*
X166554819Y-126123809D01*
X166554819Y-126123809D02*
X166602438Y-126219047D01*
X166602438Y-126219047D02*
X166650057Y-126266666D01*
X166650057Y-126266666D02*
X166745295Y-126314285D01*
X166745295Y-126314285D02*
X166935771Y-126361904D01*
X166935771Y-126361904D02*
X167173866Y-126361904D01*
X167173866Y-126361904D02*
X167364342Y-126314285D01*
X167364342Y-126314285D02*
X167459580Y-126266666D01*
X167459580Y-126266666D02*
X167507200Y-126219047D01*
X167507200Y-126219047D02*
X167554819Y-126123809D01*
X167554819Y-126123809D02*
X167554819Y-126028571D01*
X167554819Y-126028571D02*
X167507200Y-125933333D01*
X167507200Y-125933333D02*
X167459580Y-125885714D01*
X167459580Y-125885714D02*
X167364342Y-125838095D01*
X167364342Y-125838095D02*
X167173866Y-125790476D01*
X167173866Y-125790476D02*
X166935771Y-125790476D01*
X166935771Y-125790476D02*
X166745295Y-125838095D01*
X166745295Y-125838095D02*
X166650057Y-125885714D01*
X166650057Y-125885714D02*
X166602438Y-125933333D01*
X166602438Y-125933333D02*
X166554819Y-126028571D01*
X134454819Y-72785714D02*
X133454819Y-72785714D01*
X133454819Y-72785714D02*
X133454819Y-73023809D01*
X133454819Y-73023809D02*
X133502438Y-73166666D01*
X133502438Y-73166666D02*
X133597676Y-73261904D01*
X133597676Y-73261904D02*
X133692914Y-73309523D01*
X133692914Y-73309523D02*
X133883390Y-73357142D01*
X133883390Y-73357142D02*
X134026247Y-73357142D01*
X134026247Y-73357142D02*
X134216723Y-73309523D01*
X134216723Y-73309523D02*
X134311961Y-73261904D01*
X134311961Y-73261904D02*
X134407200Y-73166666D01*
X134407200Y-73166666D02*
X134454819Y-73023809D01*
X134454819Y-73023809D02*
X134454819Y-72785714D01*
X133454819Y-73690476D02*
X133454819Y-74309523D01*
X133454819Y-74309523D02*
X133835771Y-73976190D01*
X133835771Y-73976190D02*
X133835771Y-74119047D01*
X133835771Y-74119047D02*
X133883390Y-74214285D01*
X133883390Y-74214285D02*
X133931009Y-74261904D01*
X133931009Y-74261904D02*
X134026247Y-74309523D01*
X134026247Y-74309523D02*
X134264342Y-74309523D01*
X134264342Y-74309523D02*
X134359580Y-74261904D01*
X134359580Y-74261904D02*
X134407200Y-74214285D01*
X134407200Y-74214285D02*
X134454819Y-74119047D01*
X134454819Y-74119047D02*
X134454819Y-73833333D01*
X134454819Y-73833333D02*
X134407200Y-73738095D01*
X134407200Y-73738095D02*
X134359580Y-73690476D01*
X133454819Y-74928571D02*
X133454819Y-75023809D01*
X133454819Y-75023809D02*
X133502438Y-75119047D01*
X133502438Y-75119047D02*
X133550057Y-75166666D01*
X133550057Y-75166666D02*
X133645295Y-75214285D01*
X133645295Y-75214285D02*
X133835771Y-75261904D01*
X133835771Y-75261904D02*
X134073866Y-75261904D01*
X134073866Y-75261904D02*
X134264342Y-75214285D01*
X134264342Y-75214285D02*
X134359580Y-75166666D01*
X134359580Y-75166666D02*
X134407200Y-75119047D01*
X134407200Y-75119047D02*
X134454819Y-75023809D01*
X134454819Y-75023809D02*
X134454819Y-74928571D01*
X134454819Y-74928571D02*
X134407200Y-74833333D01*
X134407200Y-74833333D02*
X134359580Y-74785714D01*
X134359580Y-74785714D02*
X134264342Y-74738095D01*
X134264342Y-74738095D02*
X134073866Y-74690476D01*
X134073866Y-74690476D02*
X133835771Y-74690476D01*
X133835771Y-74690476D02*
X133645295Y-74738095D01*
X133645295Y-74738095D02*
X133550057Y-74785714D01*
X133550057Y-74785714D02*
X133502438Y-74833333D01*
X133502438Y-74833333D02*
X133454819Y-74928571D01*
X110654819Y-108085714D02*
X109654819Y-108085714D01*
X109654819Y-108085714D02*
X109654819Y-108323809D01*
X109654819Y-108323809D02*
X109702438Y-108466666D01*
X109702438Y-108466666D02*
X109797676Y-108561904D01*
X109797676Y-108561904D02*
X109892914Y-108609523D01*
X109892914Y-108609523D02*
X110083390Y-108657142D01*
X110083390Y-108657142D02*
X110226247Y-108657142D01*
X110226247Y-108657142D02*
X110416723Y-108609523D01*
X110416723Y-108609523D02*
X110511961Y-108561904D01*
X110511961Y-108561904D02*
X110607200Y-108466666D01*
X110607200Y-108466666D02*
X110654819Y-108323809D01*
X110654819Y-108323809D02*
X110654819Y-108085714D01*
X109750057Y-109038095D02*
X109702438Y-109085714D01*
X109702438Y-109085714D02*
X109654819Y-109180952D01*
X109654819Y-109180952D02*
X109654819Y-109419047D01*
X109654819Y-109419047D02*
X109702438Y-109514285D01*
X109702438Y-109514285D02*
X109750057Y-109561904D01*
X109750057Y-109561904D02*
X109845295Y-109609523D01*
X109845295Y-109609523D02*
X109940533Y-109609523D01*
X109940533Y-109609523D02*
X110083390Y-109561904D01*
X110083390Y-109561904D02*
X110654819Y-108990476D01*
X110654819Y-108990476D02*
X110654819Y-109609523D01*
X110083390Y-110180952D02*
X110035771Y-110085714D01*
X110035771Y-110085714D02*
X109988152Y-110038095D01*
X109988152Y-110038095D02*
X109892914Y-109990476D01*
X109892914Y-109990476D02*
X109845295Y-109990476D01*
X109845295Y-109990476D02*
X109750057Y-110038095D01*
X109750057Y-110038095D02*
X109702438Y-110085714D01*
X109702438Y-110085714D02*
X109654819Y-110180952D01*
X109654819Y-110180952D02*
X109654819Y-110371428D01*
X109654819Y-110371428D02*
X109702438Y-110466666D01*
X109702438Y-110466666D02*
X109750057Y-110514285D01*
X109750057Y-110514285D02*
X109845295Y-110561904D01*
X109845295Y-110561904D02*
X109892914Y-110561904D01*
X109892914Y-110561904D02*
X109988152Y-110514285D01*
X109988152Y-110514285D02*
X110035771Y-110466666D01*
X110035771Y-110466666D02*
X110083390Y-110371428D01*
X110083390Y-110371428D02*
X110083390Y-110180952D01*
X110083390Y-110180952D02*
X110131009Y-110085714D01*
X110131009Y-110085714D02*
X110178628Y-110038095D01*
X110178628Y-110038095D02*
X110273866Y-109990476D01*
X110273866Y-109990476D02*
X110464342Y-109990476D01*
X110464342Y-109990476D02*
X110559580Y-110038095D01*
X110559580Y-110038095D02*
X110607200Y-110085714D01*
X110607200Y-110085714D02*
X110654819Y-110180952D01*
X110654819Y-110180952D02*
X110654819Y-110371428D01*
X110654819Y-110371428D02*
X110607200Y-110466666D01*
X110607200Y-110466666D02*
X110559580Y-110514285D01*
X110559580Y-110514285D02*
X110464342Y-110561904D01*
X110464342Y-110561904D02*
X110273866Y-110561904D01*
X110273866Y-110561904D02*
X110178628Y-110514285D01*
X110178628Y-110514285D02*
X110131009Y-110466666D01*
X110131009Y-110466666D02*
X110083390Y-110371428D01*
X148554819Y-108085714D02*
X147554819Y-108085714D01*
X147554819Y-108085714D02*
X147554819Y-108323809D01*
X147554819Y-108323809D02*
X147602438Y-108466666D01*
X147602438Y-108466666D02*
X147697676Y-108561904D01*
X147697676Y-108561904D02*
X147792914Y-108609523D01*
X147792914Y-108609523D02*
X147983390Y-108657142D01*
X147983390Y-108657142D02*
X148126247Y-108657142D01*
X148126247Y-108657142D02*
X148316723Y-108609523D01*
X148316723Y-108609523D02*
X148411961Y-108561904D01*
X148411961Y-108561904D02*
X148507200Y-108466666D01*
X148507200Y-108466666D02*
X148554819Y-108323809D01*
X148554819Y-108323809D02*
X148554819Y-108085714D01*
X147554819Y-108990476D02*
X147554819Y-109609523D01*
X147554819Y-109609523D02*
X147935771Y-109276190D01*
X147935771Y-109276190D02*
X147935771Y-109419047D01*
X147935771Y-109419047D02*
X147983390Y-109514285D01*
X147983390Y-109514285D02*
X148031009Y-109561904D01*
X148031009Y-109561904D02*
X148126247Y-109609523D01*
X148126247Y-109609523D02*
X148364342Y-109609523D01*
X148364342Y-109609523D02*
X148459580Y-109561904D01*
X148459580Y-109561904D02*
X148507200Y-109514285D01*
X148507200Y-109514285D02*
X148554819Y-109419047D01*
X148554819Y-109419047D02*
X148554819Y-109133333D01*
X148554819Y-109133333D02*
X148507200Y-109038095D01*
X148507200Y-109038095D02*
X148459580Y-108990476D01*
X147554819Y-110466666D02*
X147554819Y-110276190D01*
X147554819Y-110276190D02*
X147602438Y-110180952D01*
X147602438Y-110180952D02*
X147650057Y-110133333D01*
X147650057Y-110133333D02*
X147792914Y-110038095D01*
X147792914Y-110038095D02*
X147983390Y-109990476D01*
X147983390Y-109990476D02*
X148364342Y-109990476D01*
X148364342Y-109990476D02*
X148459580Y-110038095D01*
X148459580Y-110038095D02*
X148507200Y-110085714D01*
X148507200Y-110085714D02*
X148554819Y-110180952D01*
X148554819Y-110180952D02*
X148554819Y-110371428D01*
X148554819Y-110371428D02*
X148507200Y-110466666D01*
X148507200Y-110466666D02*
X148459580Y-110514285D01*
X148459580Y-110514285D02*
X148364342Y-110561904D01*
X148364342Y-110561904D02*
X148126247Y-110561904D01*
X148126247Y-110561904D02*
X148031009Y-110514285D01*
X148031009Y-110514285D02*
X147983390Y-110466666D01*
X147983390Y-110466666D02*
X147935771Y-110371428D01*
X147935771Y-110371428D02*
X147935771Y-110180952D01*
X147935771Y-110180952D02*
X147983390Y-110085714D01*
X147983390Y-110085714D02*
X148031009Y-110038095D01*
X148031009Y-110038095D02*
X148126247Y-109990476D01*
X191454819Y-105785714D02*
X190454819Y-105785714D01*
X190454819Y-105785714D02*
X190454819Y-106023809D01*
X190454819Y-106023809D02*
X190502438Y-106166666D01*
X190502438Y-106166666D02*
X190597676Y-106261904D01*
X190597676Y-106261904D02*
X190692914Y-106309523D01*
X190692914Y-106309523D02*
X190883390Y-106357142D01*
X190883390Y-106357142D02*
X191026247Y-106357142D01*
X191026247Y-106357142D02*
X191216723Y-106309523D01*
X191216723Y-106309523D02*
X191311961Y-106261904D01*
X191311961Y-106261904D02*
X191407200Y-106166666D01*
X191407200Y-106166666D02*
X191454819Y-106023809D01*
X191454819Y-106023809D02*
X191454819Y-105785714D01*
X190788152Y-107214285D02*
X191454819Y-107214285D01*
X190407200Y-106976190D02*
X191121485Y-106738095D01*
X191121485Y-106738095D02*
X191121485Y-107357142D01*
X191454819Y-108261904D02*
X191454819Y-107690476D01*
X191454819Y-107976190D02*
X190454819Y-107976190D01*
X190454819Y-107976190D02*
X190597676Y-107880952D01*
X190597676Y-107880952D02*
X190692914Y-107785714D01*
X190692914Y-107785714D02*
X190740533Y-107690476D01*
X129654819Y-80885714D02*
X128654819Y-80885714D01*
X128654819Y-80885714D02*
X128654819Y-81123809D01*
X128654819Y-81123809D02*
X128702438Y-81266666D01*
X128702438Y-81266666D02*
X128797676Y-81361904D01*
X128797676Y-81361904D02*
X128892914Y-81409523D01*
X128892914Y-81409523D02*
X129083390Y-81457142D01*
X129083390Y-81457142D02*
X129226247Y-81457142D01*
X129226247Y-81457142D02*
X129416723Y-81409523D01*
X129416723Y-81409523D02*
X129511961Y-81361904D01*
X129511961Y-81361904D02*
X129607200Y-81266666D01*
X129607200Y-81266666D02*
X129654819Y-81123809D01*
X129654819Y-81123809D02*
X129654819Y-80885714D01*
X128654819Y-81790476D02*
X128654819Y-82409523D01*
X128654819Y-82409523D02*
X129035771Y-82076190D01*
X129035771Y-82076190D02*
X129035771Y-82219047D01*
X129035771Y-82219047D02*
X129083390Y-82314285D01*
X129083390Y-82314285D02*
X129131009Y-82361904D01*
X129131009Y-82361904D02*
X129226247Y-82409523D01*
X129226247Y-82409523D02*
X129464342Y-82409523D01*
X129464342Y-82409523D02*
X129559580Y-82361904D01*
X129559580Y-82361904D02*
X129607200Y-82314285D01*
X129607200Y-82314285D02*
X129654819Y-82219047D01*
X129654819Y-82219047D02*
X129654819Y-81933333D01*
X129654819Y-81933333D02*
X129607200Y-81838095D01*
X129607200Y-81838095D02*
X129559580Y-81790476D01*
X129654819Y-83361904D02*
X129654819Y-82790476D01*
X129654819Y-83076190D02*
X128654819Y-83076190D01*
X128654819Y-83076190D02*
X128797676Y-82980952D01*
X128797676Y-82980952D02*
X128892914Y-82885714D01*
X128892914Y-82885714D02*
X128940533Y-82790476D01*
X318454819Y-137061905D02*
X317454819Y-137061905D01*
X317454819Y-137061905D02*
X317454819Y-137300000D01*
X317454819Y-137300000D02*
X317502438Y-137442857D01*
X317502438Y-137442857D02*
X317597676Y-137538095D01*
X317597676Y-137538095D02*
X317692914Y-137585714D01*
X317692914Y-137585714D02*
X317883390Y-137633333D01*
X317883390Y-137633333D02*
X318026247Y-137633333D01*
X318026247Y-137633333D02*
X318216723Y-137585714D01*
X318216723Y-137585714D02*
X318311961Y-137538095D01*
X318311961Y-137538095D02*
X318407200Y-137442857D01*
X318407200Y-137442857D02*
X318454819Y-137300000D01*
X318454819Y-137300000D02*
X318454819Y-137061905D01*
X317883390Y-138204762D02*
X317835771Y-138109524D01*
X317835771Y-138109524D02*
X317788152Y-138061905D01*
X317788152Y-138061905D02*
X317692914Y-138014286D01*
X317692914Y-138014286D02*
X317645295Y-138014286D01*
X317645295Y-138014286D02*
X317550057Y-138061905D01*
X317550057Y-138061905D02*
X317502438Y-138109524D01*
X317502438Y-138109524D02*
X317454819Y-138204762D01*
X317454819Y-138204762D02*
X317454819Y-138395238D01*
X317454819Y-138395238D02*
X317502438Y-138490476D01*
X317502438Y-138490476D02*
X317550057Y-138538095D01*
X317550057Y-138538095D02*
X317645295Y-138585714D01*
X317645295Y-138585714D02*
X317692914Y-138585714D01*
X317692914Y-138585714D02*
X317788152Y-138538095D01*
X317788152Y-138538095D02*
X317835771Y-138490476D01*
X317835771Y-138490476D02*
X317883390Y-138395238D01*
X317883390Y-138395238D02*
X317883390Y-138204762D01*
X317883390Y-138204762D02*
X317931009Y-138109524D01*
X317931009Y-138109524D02*
X317978628Y-138061905D01*
X317978628Y-138061905D02*
X318073866Y-138014286D01*
X318073866Y-138014286D02*
X318264342Y-138014286D01*
X318264342Y-138014286D02*
X318359580Y-138061905D01*
X318359580Y-138061905D02*
X318407200Y-138109524D01*
X318407200Y-138109524D02*
X318454819Y-138204762D01*
X318454819Y-138204762D02*
X318454819Y-138395238D01*
X318454819Y-138395238D02*
X318407200Y-138490476D01*
X318407200Y-138490476D02*
X318359580Y-138538095D01*
X318359580Y-138538095D02*
X318264342Y-138585714D01*
X318264342Y-138585714D02*
X318073866Y-138585714D01*
X318073866Y-138585714D02*
X317978628Y-138538095D01*
X317978628Y-138538095D02*
X317931009Y-138490476D01*
X317931009Y-138490476D02*
X317883390Y-138395238D01*
X219654819Y-113985714D02*
X218654819Y-113985714D01*
X218654819Y-113985714D02*
X218654819Y-114223809D01*
X218654819Y-114223809D02*
X218702438Y-114366666D01*
X218702438Y-114366666D02*
X218797676Y-114461904D01*
X218797676Y-114461904D02*
X218892914Y-114509523D01*
X218892914Y-114509523D02*
X219083390Y-114557142D01*
X219083390Y-114557142D02*
X219226247Y-114557142D01*
X219226247Y-114557142D02*
X219416723Y-114509523D01*
X219416723Y-114509523D02*
X219511961Y-114461904D01*
X219511961Y-114461904D02*
X219607200Y-114366666D01*
X219607200Y-114366666D02*
X219654819Y-114223809D01*
X219654819Y-114223809D02*
X219654819Y-113985714D01*
X218750057Y-114938095D02*
X218702438Y-114985714D01*
X218702438Y-114985714D02*
X218654819Y-115080952D01*
X218654819Y-115080952D02*
X218654819Y-115319047D01*
X218654819Y-115319047D02*
X218702438Y-115414285D01*
X218702438Y-115414285D02*
X218750057Y-115461904D01*
X218750057Y-115461904D02*
X218845295Y-115509523D01*
X218845295Y-115509523D02*
X218940533Y-115509523D01*
X218940533Y-115509523D02*
X219083390Y-115461904D01*
X219083390Y-115461904D02*
X219654819Y-114890476D01*
X219654819Y-114890476D02*
X219654819Y-115509523D01*
X219654819Y-116461904D02*
X219654819Y-115890476D01*
X219654819Y-116176190D02*
X218654819Y-116176190D01*
X218654819Y-116176190D02*
X218797676Y-116080952D01*
X218797676Y-116080952D02*
X218892914Y-115985714D01*
X218892914Y-115985714D02*
X218940533Y-115890476D01*
X148654819Y-89085714D02*
X147654819Y-89085714D01*
X147654819Y-89085714D02*
X147654819Y-89323809D01*
X147654819Y-89323809D02*
X147702438Y-89466666D01*
X147702438Y-89466666D02*
X147797676Y-89561904D01*
X147797676Y-89561904D02*
X147892914Y-89609523D01*
X147892914Y-89609523D02*
X148083390Y-89657142D01*
X148083390Y-89657142D02*
X148226247Y-89657142D01*
X148226247Y-89657142D02*
X148416723Y-89609523D01*
X148416723Y-89609523D02*
X148511961Y-89561904D01*
X148511961Y-89561904D02*
X148607200Y-89466666D01*
X148607200Y-89466666D02*
X148654819Y-89323809D01*
X148654819Y-89323809D02*
X148654819Y-89085714D01*
X147654819Y-89990476D02*
X147654819Y-90609523D01*
X147654819Y-90609523D02*
X148035771Y-90276190D01*
X148035771Y-90276190D02*
X148035771Y-90419047D01*
X148035771Y-90419047D02*
X148083390Y-90514285D01*
X148083390Y-90514285D02*
X148131009Y-90561904D01*
X148131009Y-90561904D02*
X148226247Y-90609523D01*
X148226247Y-90609523D02*
X148464342Y-90609523D01*
X148464342Y-90609523D02*
X148559580Y-90561904D01*
X148559580Y-90561904D02*
X148607200Y-90514285D01*
X148607200Y-90514285D02*
X148654819Y-90419047D01*
X148654819Y-90419047D02*
X148654819Y-90133333D01*
X148654819Y-90133333D02*
X148607200Y-90038095D01*
X148607200Y-90038095D02*
X148559580Y-89990476D01*
X147654819Y-91514285D02*
X147654819Y-91038095D01*
X147654819Y-91038095D02*
X148131009Y-90990476D01*
X148131009Y-90990476D02*
X148083390Y-91038095D01*
X148083390Y-91038095D02*
X148035771Y-91133333D01*
X148035771Y-91133333D02*
X148035771Y-91371428D01*
X148035771Y-91371428D02*
X148083390Y-91466666D01*
X148083390Y-91466666D02*
X148131009Y-91514285D01*
X148131009Y-91514285D02*
X148226247Y-91561904D01*
X148226247Y-91561904D02*
X148464342Y-91561904D01*
X148464342Y-91561904D02*
X148559580Y-91514285D01*
X148559580Y-91514285D02*
X148607200Y-91466666D01*
X148607200Y-91466666D02*
X148654819Y-91371428D01*
X148654819Y-91371428D02*
X148654819Y-91133333D01*
X148654819Y-91133333D02*
X148607200Y-91038095D01*
X148607200Y-91038095D02*
X148559580Y-90990476D01*
X281454819Y-73261905D02*
X280454819Y-73261905D01*
X280454819Y-73261905D02*
X280454819Y-73500000D01*
X280454819Y-73500000D02*
X280502438Y-73642857D01*
X280502438Y-73642857D02*
X280597676Y-73738095D01*
X280597676Y-73738095D02*
X280692914Y-73785714D01*
X280692914Y-73785714D02*
X280883390Y-73833333D01*
X280883390Y-73833333D02*
X281026247Y-73833333D01*
X281026247Y-73833333D02*
X281216723Y-73785714D01*
X281216723Y-73785714D02*
X281311961Y-73738095D01*
X281311961Y-73738095D02*
X281407200Y-73642857D01*
X281407200Y-73642857D02*
X281454819Y-73500000D01*
X281454819Y-73500000D02*
X281454819Y-73261905D01*
X281454819Y-74309524D02*
X281454819Y-74500000D01*
X281454819Y-74500000D02*
X281407200Y-74595238D01*
X281407200Y-74595238D02*
X281359580Y-74642857D01*
X281359580Y-74642857D02*
X281216723Y-74738095D01*
X281216723Y-74738095D02*
X281026247Y-74785714D01*
X281026247Y-74785714D02*
X280645295Y-74785714D01*
X280645295Y-74785714D02*
X280550057Y-74738095D01*
X280550057Y-74738095D02*
X280502438Y-74690476D01*
X280502438Y-74690476D02*
X280454819Y-74595238D01*
X280454819Y-74595238D02*
X280454819Y-74404762D01*
X280454819Y-74404762D02*
X280502438Y-74309524D01*
X280502438Y-74309524D02*
X280550057Y-74261905D01*
X280550057Y-74261905D02*
X280645295Y-74214286D01*
X280645295Y-74214286D02*
X280883390Y-74214286D01*
X280883390Y-74214286D02*
X280978628Y-74261905D01*
X280978628Y-74261905D02*
X281026247Y-74309524D01*
X281026247Y-74309524D02*
X281073866Y-74404762D01*
X281073866Y-74404762D02*
X281073866Y-74595238D01*
X281073866Y-74595238D02*
X281026247Y-74690476D01*
X281026247Y-74690476D02*
X280978628Y-74738095D01*
X280978628Y-74738095D02*
X280883390Y-74785714D01*
X96454819Y-85785714D02*
X95454819Y-85785714D01*
X95454819Y-85785714D02*
X95454819Y-86023809D01*
X95454819Y-86023809D02*
X95502438Y-86166666D01*
X95502438Y-86166666D02*
X95597676Y-86261904D01*
X95597676Y-86261904D02*
X95692914Y-86309523D01*
X95692914Y-86309523D02*
X95883390Y-86357142D01*
X95883390Y-86357142D02*
X96026247Y-86357142D01*
X96026247Y-86357142D02*
X96216723Y-86309523D01*
X96216723Y-86309523D02*
X96311961Y-86261904D01*
X96311961Y-86261904D02*
X96407200Y-86166666D01*
X96407200Y-86166666D02*
X96454819Y-86023809D01*
X96454819Y-86023809D02*
X96454819Y-85785714D01*
X95550057Y-86738095D02*
X95502438Y-86785714D01*
X95502438Y-86785714D02*
X95454819Y-86880952D01*
X95454819Y-86880952D02*
X95454819Y-87119047D01*
X95454819Y-87119047D02*
X95502438Y-87214285D01*
X95502438Y-87214285D02*
X95550057Y-87261904D01*
X95550057Y-87261904D02*
X95645295Y-87309523D01*
X95645295Y-87309523D02*
X95740533Y-87309523D01*
X95740533Y-87309523D02*
X95883390Y-87261904D01*
X95883390Y-87261904D02*
X96454819Y-86690476D01*
X96454819Y-86690476D02*
X96454819Y-87309523D01*
X95550057Y-87690476D02*
X95502438Y-87738095D01*
X95502438Y-87738095D02*
X95454819Y-87833333D01*
X95454819Y-87833333D02*
X95454819Y-88071428D01*
X95454819Y-88071428D02*
X95502438Y-88166666D01*
X95502438Y-88166666D02*
X95550057Y-88214285D01*
X95550057Y-88214285D02*
X95645295Y-88261904D01*
X95645295Y-88261904D02*
X95740533Y-88261904D01*
X95740533Y-88261904D02*
X95883390Y-88214285D01*
X95883390Y-88214285D02*
X96454819Y-87642857D01*
X96454819Y-87642857D02*
X96454819Y-88261904D01*
X238654819Y-123985714D02*
X237654819Y-123985714D01*
X237654819Y-123985714D02*
X237654819Y-124223809D01*
X237654819Y-124223809D02*
X237702438Y-124366666D01*
X237702438Y-124366666D02*
X237797676Y-124461904D01*
X237797676Y-124461904D02*
X237892914Y-124509523D01*
X237892914Y-124509523D02*
X238083390Y-124557142D01*
X238083390Y-124557142D02*
X238226247Y-124557142D01*
X238226247Y-124557142D02*
X238416723Y-124509523D01*
X238416723Y-124509523D02*
X238511961Y-124461904D01*
X238511961Y-124461904D02*
X238607200Y-124366666D01*
X238607200Y-124366666D02*
X238654819Y-124223809D01*
X238654819Y-124223809D02*
X238654819Y-123985714D01*
X238654819Y-125509523D02*
X238654819Y-124938095D01*
X238654819Y-125223809D02*
X237654819Y-125223809D01*
X237654819Y-125223809D02*
X237797676Y-125128571D01*
X237797676Y-125128571D02*
X237892914Y-125033333D01*
X237892914Y-125033333D02*
X237940533Y-124938095D01*
X238654819Y-125985714D02*
X238654819Y-126176190D01*
X238654819Y-126176190D02*
X238607200Y-126271428D01*
X238607200Y-126271428D02*
X238559580Y-126319047D01*
X238559580Y-126319047D02*
X238416723Y-126414285D01*
X238416723Y-126414285D02*
X238226247Y-126461904D01*
X238226247Y-126461904D02*
X237845295Y-126461904D01*
X237845295Y-126461904D02*
X237750057Y-126414285D01*
X237750057Y-126414285D02*
X237702438Y-126366666D01*
X237702438Y-126366666D02*
X237654819Y-126271428D01*
X237654819Y-126271428D02*
X237654819Y-126080952D01*
X237654819Y-126080952D02*
X237702438Y-125985714D01*
X237702438Y-125985714D02*
X237750057Y-125938095D01*
X237750057Y-125938095D02*
X237845295Y-125890476D01*
X237845295Y-125890476D02*
X238083390Y-125890476D01*
X238083390Y-125890476D02*
X238178628Y-125938095D01*
X238178628Y-125938095D02*
X238226247Y-125985714D01*
X238226247Y-125985714D02*
X238273866Y-126080952D01*
X238273866Y-126080952D02*
X238273866Y-126271428D01*
X238273866Y-126271428D02*
X238226247Y-126366666D01*
X238226247Y-126366666D02*
X238178628Y-126414285D01*
X238178628Y-126414285D02*
X238083390Y-126461904D01*
X276554819Y-99785714D02*
X275554819Y-99785714D01*
X275554819Y-99785714D02*
X275554819Y-100023809D01*
X275554819Y-100023809D02*
X275602438Y-100166666D01*
X275602438Y-100166666D02*
X275697676Y-100261904D01*
X275697676Y-100261904D02*
X275792914Y-100309523D01*
X275792914Y-100309523D02*
X275983390Y-100357142D01*
X275983390Y-100357142D02*
X276126247Y-100357142D01*
X276126247Y-100357142D02*
X276316723Y-100309523D01*
X276316723Y-100309523D02*
X276411961Y-100261904D01*
X276411961Y-100261904D02*
X276507200Y-100166666D01*
X276507200Y-100166666D02*
X276554819Y-100023809D01*
X276554819Y-100023809D02*
X276554819Y-99785714D01*
X276554819Y-101309523D02*
X276554819Y-100738095D01*
X276554819Y-101023809D02*
X275554819Y-101023809D01*
X275554819Y-101023809D02*
X275697676Y-100928571D01*
X275697676Y-100928571D02*
X275792914Y-100833333D01*
X275792914Y-100833333D02*
X275840533Y-100738095D01*
X276554819Y-102261904D02*
X276554819Y-101690476D01*
X276554819Y-101976190D02*
X275554819Y-101976190D01*
X275554819Y-101976190D02*
X275697676Y-101880952D01*
X275697676Y-101880952D02*
X275792914Y-101785714D01*
X275792914Y-101785714D02*
X275840533Y-101690476D01*
X300454819Y-81261905D02*
X299454819Y-81261905D01*
X299454819Y-81261905D02*
X299454819Y-81500000D01*
X299454819Y-81500000D02*
X299502438Y-81642857D01*
X299502438Y-81642857D02*
X299597676Y-81738095D01*
X299597676Y-81738095D02*
X299692914Y-81785714D01*
X299692914Y-81785714D02*
X299883390Y-81833333D01*
X299883390Y-81833333D02*
X300026247Y-81833333D01*
X300026247Y-81833333D02*
X300216723Y-81785714D01*
X300216723Y-81785714D02*
X300311961Y-81738095D01*
X300311961Y-81738095D02*
X300407200Y-81642857D01*
X300407200Y-81642857D02*
X300454819Y-81500000D01*
X300454819Y-81500000D02*
X300454819Y-81261905D01*
X299454819Y-82738095D02*
X299454819Y-82261905D01*
X299454819Y-82261905D02*
X299931009Y-82214286D01*
X299931009Y-82214286D02*
X299883390Y-82261905D01*
X299883390Y-82261905D02*
X299835771Y-82357143D01*
X299835771Y-82357143D02*
X299835771Y-82595238D01*
X299835771Y-82595238D02*
X299883390Y-82690476D01*
X299883390Y-82690476D02*
X299931009Y-82738095D01*
X299931009Y-82738095D02*
X300026247Y-82785714D01*
X300026247Y-82785714D02*
X300264342Y-82785714D01*
X300264342Y-82785714D02*
X300359580Y-82738095D01*
X300359580Y-82738095D02*
X300407200Y-82690476D01*
X300407200Y-82690476D02*
X300454819Y-82595238D01*
X300454819Y-82595238D02*
X300454819Y-82357143D01*
X300454819Y-82357143D02*
X300407200Y-82261905D01*
X300407200Y-82261905D02*
X300359580Y-82214286D01*
D11*
X74065616Y-134149519D02*
X74084364Y-134168267D01*
X74084364Y-134168267D02*
X74140607Y-134187014D01*
X74140607Y-134187014D02*
X74178102Y-134187014D01*
X74178102Y-134187014D02*
X74234345Y-134168267D01*
X74234345Y-134168267D02*
X74271841Y-134130771D01*
X74271841Y-134130771D02*
X74290588Y-134093276D01*
X74290588Y-134093276D02*
X74309336Y-134018285D01*
X74309336Y-134018285D02*
X74309336Y-133962042D01*
X74309336Y-133962042D02*
X74290588Y-133887052D01*
X74290588Y-133887052D02*
X74271841Y-133849556D01*
X74271841Y-133849556D02*
X74234345Y-133812061D01*
X74234345Y-133812061D02*
X74178102Y-133793313D01*
X74178102Y-133793313D02*
X74140607Y-133793313D01*
X74140607Y-133793313D02*
X74084364Y-133812061D01*
X74084364Y-133812061D02*
X74065616Y-133830809D01*
X73728158Y-133924547D02*
X73728158Y-134187014D01*
X73821897Y-133774566D02*
X73915635Y-134055781D01*
X73915635Y-134055781D02*
X73671915Y-134055781D01*
D10*
X129654819Y-99885714D02*
X128654819Y-99885714D01*
X128654819Y-99885714D02*
X128654819Y-100123809D01*
X128654819Y-100123809D02*
X128702438Y-100266666D01*
X128702438Y-100266666D02*
X128797676Y-100361904D01*
X128797676Y-100361904D02*
X128892914Y-100409523D01*
X128892914Y-100409523D02*
X129083390Y-100457142D01*
X129083390Y-100457142D02*
X129226247Y-100457142D01*
X129226247Y-100457142D02*
X129416723Y-100409523D01*
X129416723Y-100409523D02*
X129511961Y-100361904D01*
X129511961Y-100361904D02*
X129607200Y-100266666D01*
X129607200Y-100266666D02*
X129654819Y-100123809D01*
X129654819Y-100123809D02*
X129654819Y-99885714D01*
X128654819Y-100790476D02*
X128654819Y-101409523D01*
X128654819Y-101409523D02*
X129035771Y-101076190D01*
X129035771Y-101076190D02*
X129035771Y-101219047D01*
X129035771Y-101219047D02*
X129083390Y-101314285D01*
X129083390Y-101314285D02*
X129131009Y-101361904D01*
X129131009Y-101361904D02*
X129226247Y-101409523D01*
X129226247Y-101409523D02*
X129464342Y-101409523D01*
X129464342Y-101409523D02*
X129559580Y-101361904D01*
X129559580Y-101361904D02*
X129607200Y-101314285D01*
X129607200Y-101314285D02*
X129654819Y-101219047D01*
X129654819Y-101219047D02*
X129654819Y-100933333D01*
X129654819Y-100933333D02*
X129607200Y-100838095D01*
X129607200Y-100838095D02*
X129559580Y-100790476D01*
X128750057Y-101790476D02*
X128702438Y-101838095D01*
X128702438Y-101838095D02*
X128654819Y-101933333D01*
X128654819Y-101933333D02*
X128654819Y-102171428D01*
X128654819Y-102171428D02*
X128702438Y-102266666D01*
X128702438Y-102266666D02*
X128750057Y-102314285D01*
X128750057Y-102314285D02*
X128845295Y-102361904D01*
X128845295Y-102361904D02*
X128940533Y-102361904D01*
X128940533Y-102361904D02*
X129083390Y-102314285D01*
X129083390Y-102314285D02*
X129654819Y-101742857D01*
X129654819Y-101742857D02*
X129654819Y-102361904D01*
D11*
X343065616Y-131629519D02*
X343084364Y-131648267D01*
X343084364Y-131648267D02*
X343140607Y-131667014D01*
X343140607Y-131667014D02*
X343178102Y-131667014D01*
X343178102Y-131667014D02*
X343234345Y-131648267D01*
X343234345Y-131648267D02*
X343271841Y-131610771D01*
X343271841Y-131610771D02*
X343290588Y-131573276D01*
X343290588Y-131573276D02*
X343309336Y-131498285D01*
X343309336Y-131498285D02*
X343309336Y-131442042D01*
X343309336Y-131442042D02*
X343290588Y-131367052D01*
X343290588Y-131367052D02*
X343271841Y-131329556D01*
X343271841Y-131329556D02*
X343234345Y-131292061D01*
X343234345Y-131292061D02*
X343178102Y-131273313D01*
X343178102Y-131273313D02*
X343140607Y-131273313D01*
X343140607Y-131273313D02*
X343084364Y-131292061D01*
X343084364Y-131292061D02*
X343065616Y-131310809D01*
X342690663Y-131667014D02*
X342915635Y-131667014D01*
X342803149Y-131667014D02*
X342803149Y-131273313D01*
X342803149Y-131273313D02*
X342840644Y-131329556D01*
X342840644Y-131329556D02*
X342878140Y-131367052D01*
X342878140Y-131367052D02*
X342915635Y-131385799D01*
D10*
X243454819Y-96785714D02*
X242454819Y-96785714D01*
X242454819Y-96785714D02*
X242454819Y-97023809D01*
X242454819Y-97023809D02*
X242502438Y-97166666D01*
X242502438Y-97166666D02*
X242597676Y-97261904D01*
X242597676Y-97261904D02*
X242692914Y-97309523D01*
X242692914Y-97309523D02*
X242883390Y-97357142D01*
X242883390Y-97357142D02*
X243026247Y-97357142D01*
X243026247Y-97357142D02*
X243216723Y-97309523D01*
X243216723Y-97309523D02*
X243311961Y-97261904D01*
X243311961Y-97261904D02*
X243407200Y-97166666D01*
X243407200Y-97166666D02*
X243454819Y-97023809D01*
X243454819Y-97023809D02*
X243454819Y-96785714D01*
X243454819Y-98309523D02*
X243454819Y-97738095D01*
X243454819Y-98023809D02*
X242454819Y-98023809D01*
X242454819Y-98023809D02*
X242597676Y-97928571D01*
X242597676Y-97928571D02*
X242692914Y-97833333D01*
X242692914Y-97833333D02*
X242740533Y-97738095D01*
X242454819Y-98642857D02*
X242454819Y-99309523D01*
X242454819Y-99309523D02*
X243454819Y-98880952D01*
X167654819Y-104885714D02*
X166654819Y-104885714D01*
X166654819Y-104885714D02*
X166654819Y-105123809D01*
X166654819Y-105123809D02*
X166702438Y-105266666D01*
X166702438Y-105266666D02*
X166797676Y-105361904D01*
X166797676Y-105361904D02*
X166892914Y-105409523D01*
X166892914Y-105409523D02*
X167083390Y-105457142D01*
X167083390Y-105457142D02*
X167226247Y-105457142D01*
X167226247Y-105457142D02*
X167416723Y-105409523D01*
X167416723Y-105409523D02*
X167511961Y-105361904D01*
X167511961Y-105361904D02*
X167607200Y-105266666D01*
X167607200Y-105266666D02*
X167654819Y-105123809D01*
X167654819Y-105123809D02*
X167654819Y-104885714D01*
X166654819Y-105790476D02*
X166654819Y-106409523D01*
X166654819Y-106409523D02*
X167035771Y-106076190D01*
X167035771Y-106076190D02*
X167035771Y-106219047D01*
X167035771Y-106219047D02*
X167083390Y-106314285D01*
X167083390Y-106314285D02*
X167131009Y-106361904D01*
X167131009Y-106361904D02*
X167226247Y-106409523D01*
X167226247Y-106409523D02*
X167464342Y-106409523D01*
X167464342Y-106409523D02*
X167559580Y-106361904D01*
X167559580Y-106361904D02*
X167607200Y-106314285D01*
X167607200Y-106314285D02*
X167654819Y-106219047D01*
X167654819Y-106219047D02*
X167654819Y-105933333D01*
X167654819Y-105933333D02*
X167607200Y-105838095D01*
X167607200Y-105838095D02*
X167559580Y-105790476D01*
X167654819Y-106885714D02*
X167654819Y-107076190D01*
X167654819Y-107076190D02*
X167607200Y-107171428D01*
X167607200Y-107171428D02*
X167559580Y-107219047D01*
X167559580Y-107219047D02*
X167416723Y-107314285D01*
X167416723Y-107314285D02*
X167226247Y-107361904D01*
X167226247Y-107361904D02*
X166845295Y-107361904D01*
X166845295Y-107361904D02*
X166750057Y-107314285D01*
X166750057Y-107314285D02*
X166702438Y-107266666D01*
X166702438Y-107266666D02*
X166654819Y-107171428D01*
X166654819Y-107171428D02*
X166654819Y-106980952D01*
X166654819Y-106980952D02*
X166702438Y-106885714D01*
X166702438Y-106885714D02*
X166750057Y-106838095D01*
X166750057Y-106838095D02*
X166845295Y-106790476D01*
X166845295Y-106790476D02*
X167083390Y-106790476D01*
X167083390Y-106790476D02*
X167178628Y-106838095D01*
X167178628Y-106838095D02*
X167226247Y-106885714D01*
X167226247Y-106885714D02*
X167273866Y-106980952D01*
X167273866Y-106980952D02*
X167273866Y-107171428D01*
X167273866Y-107171428D02*
X167226247Y-107266666D01*
X167226247Y-107266666D02*
X167178628Y-107314285D01*
X167178628Y-107314285D02*
X167083390Y-107361904D01*
X295654819Y-88761905D02*
X294654819Y-88761905D01*
X294654819Y-88761905D02*
X294654819Y-89000000D01*
X294654819Y-89000000D02*
X294702438Y-89142857D01*
X294702438Y-89142857D02*
X294797676Y-89238095D01*
X294797676Y-89238095D02*
X294892914Y-89285714D01*
X294892914Y-89285714D02*
X295083390Y-89333333D01*
X295083390Y-89333333D02*
X295226247Y-89333333D01*
X295226247Y-89333333D02*
X295416723Y-89285714D01*
X295416723Y-89285714D02*
X295511961Y-89238095D01*
X295511961Y-89238095D02*
X295607200Y-89142857D01*
X295607200Y-89142857D02*
X295654819Y-89000000D01*
X295654819Y-89000000D02*
X295654819Y-88761905D01*
X294654819Y-90190476D02*
X294654819Y-90000000D01*
X294654819Y-90000000D02*
X294702438Y-89904762D01*
X294702438Y-89904762D02*
X294750057Y-89857143D01*
X294750057Y-89857143D02*
X294892914Y-89761905D01*
X294892914Y-89761905D02*
X295083390Y-89714286D01*
X295083390Y-89714286D02*
X295464342Y-89714286D01*
X295464342Y-89714286D02*
X295559580Y-89761905D01*
X295559580Y-89761905D02*
X295607200Y-89809524D01*
X295607200Y-89809524D02*
X295654819Y-89904762D01*
X295654819Y-89904762D02*
X295654819Y-90095238D01*
X295654819Y-90095238D02*
X295607200Y-90190476D01*
X295607200Y-90190476D02*
X295559580Y-90238095D01*
X295559580Y-90238095D02*
X295464342Y-90285714D01*
X295464342Y-90285714D02*
X295226247Y-90285714D01*
X295226247Y-90285714D02*
X295131009Y-90238095D01*
X295131009Y-90238095D02*
X295083390Y-90190476D01*
X295083390Y-90190476D02*
X295035771Y-90095238D01*
X295035771Y-90095238D02*
X295035771Y-89904762D01*
X295035771Y-89904762D02*
X295083390Y-89809524D01*
X295083390Y-89809524D02*
X295131009Y-89761905D01*
X295131009Y-89761905D02*
X295226247Y-89714286D01*
X153454819Y-80785714D02*
X152454819Y-80785714D01*
X152454819Y-80785714D02*
X152454819Y-81023809D01*
X152454819Y-81023809D02*
X152502438Y-81166666D01*
X152502438Y-81166666D02*
X152597676Y-81261904D01*
X152597676Y-81261904D02*
X152692914Y-81309523D01*
X152692914Y-81309523D02*
X152883390Y-81357142D01*
X152883390Y-81357142D02*
X153026247Y-81357142D01*
X153026247Y-81357142D02*
X153216723Y-81309523D01*
X153216723Y-81309523D02*
X153311961Y-81261904D01*
X153311961Y-81261904D02*
X153407200Y-81166666D01*
X153407200Y-81166666D02*
X153454819Y-81023809D01*
X153454819Y-81023809D02*
X153454819Y-80785714D01*
X152454819Y-81690476D02*
X152454819Y-82309523D01*
X152454819Y-82309523D02*
X152835771Y-81976190D01*
X152835771Y-81976190D02*
X152835771Y-82119047D01*
X152835771Y-82119047D02*
X152883390Y-82214285D01*
X152883390Y-82214285D02*
X152931009Y-82261904D01*
X152931009Y-82261904D02*
X153026247Y-82309523D01*
X153026247Y-82309523D02*
X153264342Y-82309523D01*
X153264342Y-82309523D02*
X153359580Y-82261904D01*
X153359580Y-82261904D02*
X153407200Y-82214285D01*
X153407200Y-82214285D02*
X153454819Y-82119047D01*
X153454819Y-82119047D02*
X153454819Y-81833333D01*
X153454819Y-81833333D02*
X153407200Y-81738095D01*
X153407200Y-81738095D02*
X153359580Y-81690476D01*
X152788152Y-83166666D02*
X153454819Y-83166666D01*
X152407200Y-82928571D02*
X153121485Y-82690476D01*
X153121485Y-82690476D02*
X153121485Y-83309523D01*
D12*
%TO.C,MCU2*%
X69110000Y-78220000D02*
X69110000Y-111240000D01*
X69110000Y-111240000D02*
X86890000Y-111240000D01*
X71650000Y-80760000D02*
X69110000Y-80760000D01*
X71650000Y-80760000D02*
X71650000Y-83300000D01*
X71650000Y-83300000D02*
X69110000Y-83300000D01*
X86890000Y-78220000D02*
X69110000Y-78220000D01*
X86890000Y-111240000D02*
X86890000Y-78220000D01*
%TO.C,MCU1*%
X330110000Y-78220000D02*
X330110000Y-111240000D01*
X330110000Y-111240000D02*
X347890000Y-111240000D01*
X332650000Y-80760000D02*
X330110000Y-80760000D01*
X332650000Y-80760000D02*
X332650000Y-83300000D01*
X332650000Y-83300000D02*
X330110000Y-83300000D01*
X347890000Y-78220000D02*
X330110000Y-78220000D01*
X347890000Y-111240000D02*
X347890000Y-78220000D01*
D10*
%TO.C,D27*%
X112200000Y-89350000D02*
X112200000Y-89750000D01*
X112200000Y-89750000D02*
X112750000Y-89750000D01*
X112200000Y-89750000D02*
X111650000Y-89750000D01*
X112200000Y-89750000D02*
X111800000Y-90350000D01*
X112600000Y-90350000D02*
X112200000Y-89750000D01*
X112200000Y-90350000D02*
X112200000Y-90850000D01*
X111800000Y-90350000D02*
X112600000Y-90350000D01*
%TO.C,D25*%
X80000000Y-147250000D02*
X80000000Y-147650000D01*
X80000000Y-147650000D02*
X80550000Y-147650000D01*
X80000000Y-147650000D02*
X79450000Y-147650000D01*
X80000000Y-147650000D02*
X79600000Y-148250000D01*
X80400000Y-148250000D02*
X80000000Y-147650000D01*
X80000000Y-148250000D02*
X80000000Y-148750000D01*
X79600000Y-148250000D02*
X80400000Y-148250000D01*
%TO.C,D18*%
X240200000Y-105450000D02*
X240200000Y-105850000D01*
X240200000Y-105850000D02*
X240750000Y-105850000D01*
X240200000Y-105850000D02*
X239650000Y-105850000D01*
X240200000Y-105850000D02*
X239800000Y-106450000D01*
X240600000Y-106450000D02*
X240200000Y-105850000D01*
X240200000Y-106450000D02*
X240200000Y-106950000D01*
X239800000Y-106450000D02*
X240600000Y-106450000D01*
%TO.C,D23*%
X93200000Y-94550000D02*
X93200000Y-94950000D01*
X93200000Y-94950000D02*
X93750000Y-94950000D01*
X93200000Y-94950000D02*
X92650000Y-94950000D01*
X93200000Y-94950000D02*
X92800000Y-95550000D01*
X93600000Y-95550000D02*
X93200000Y-94950000D01*
X93200000Y-95550000D02*
X93200000Y-96050000D01*
X92800000Y-95550000D02*
X93600000Y-95550000D01*
%TO.C,D3*%
X316200000Y-113350000D02*
X316200000Y-113750000D01*
X316200000Y-113750000D02*
X316750000Y-113750000D01*
X316200000Y-113750000D02*
X315650000Y-113750000D01*
X316200000Y-113750000D02*
X315800000Y-114350000D01*
X316600000Y-114350000D02*
X316200000Y-113750000D01*
X316200000Y-114350000D02*
X316200000Y-114850000D01*
X315800000Y-114350000D02*
X316600000Y-114350000D01*
%TO.C,D24*%
X93200000Y-113550000D02*
X93200000Y-113950000D01*
X93200000Y-113950000D02*
X93750000Y-113950000D01*
X93200000Y-113950000D02*
X92650000Y-113950000D01*
X93200000Y-113950000D02*
X92800000Y-114550000D01*
X93600000Y-114550000D02*
X93200000Y-113950000D01*
X93200000Y-114550000D02*
X93200000Y-115050000D01*
X92800000Y-114550000D02*
X93600000Y-114550000D01*
D13*
%TO.C,C2*%
X339430000Y-129100000D02*
X340570000Y-129100000D01*
X339430000Y-130900000D02*
X340570000Y-130900000D01*
D10*
%TO.C,D13*%
X260000000Y-82750000D02*
X260000000Y-82350000D01*
X260000000Y-82350000D02*
X259450000Y-82350000D01*
X260000000Y-82350000D02*
X260550000Y-82350000D01*
X260000000Y-82350000D02*
X260400000Y-81750000D01*
X259600000Y-81750000D02*
X260000000Y-82350000D01*
X260000000Y-81750000D02*
X260000000Y-81250000D01*
X260400000Y-81750000D02*
X259600000Y-81750000D01*
%TO.C,D12*%
X299300000Y-132250000D02*
X299300000Y-132650000D01*
X299300000Y-132650000D02*
X299850000Y-132650000D01*
X299300000Y-132650000D02*
X298750000Y-132650000D01*
X299300000Y-132650000D02*
X298900000Y-133250000D01*
X299700000Y-133250000D02*
X299300000Y-132650000D01*
X299300000Y-133250000D02*
X299300000Y-133750000D01*
X298900000Y-133250000D02*
X299700000Y-133250000D01*
%TO.C,D33*%
X110100000Y-134050000D02*
X110100000Y-134450000D01*
X110100000Y-134450000D02*
X110650000Y-134450000D01*
X110100000Y-134450000D02*
X109550000Y-134450000D01*
X110100000Y-134450000D02*
X109700000Y-135050000D01*
X110500000Y-135050000D02*
X110100000Y-134450000D01*
X110100000Y-135050000D02*
X110100000Y-135550000D01*
X109700000Y-135050000D02*
X110500000Y-135050000D01*
%TO.C,D4*%
X339500000Y-145450000D02*
X339500000Y-145850000D01*
X339500000Y-145850000D02*
X340050000Y-145850000D01*
X339500000Y-145850000D02*
X338950000Y-145850000D01*
X339500000Y-145850000D02*
X339100000Y-146450000D01*
X339900000Y-146450000D02*
X339500000Y-145850000D01*
X339500000Y-146450000D02*
X339500000Y-146950000D01*
X339100000Y-146450000D02*
X339900000Y-146450000D01*
%TO.C,D26*%
X113000000Y-82750000D02*
X113000000Y-82350000D01*
X113000000Y-82350000D02*
X112450000Y-82350000D01*
X113000000Y-82350000D02*
X113550000Y-82350000D01*
X113000000Y-82350000D02*
X113400000Y-81750000D01*
X112600000Y-81750000D02*
X113000000Y-82350000D01*
X113000000Y-81750000D02*
X113000000Y-81250000D01*
X113400000Y-81750000D02*
X112600000Y-81750000D01*
%TO.C,D37*%
X131300000Y-131350000D02*
X131300000Y-131750000D01*
X131300000Y-131750000D02*
X131850000Y-131750000D01*
X131300000Y-131750000D02*
X130750000Y-131750000D01*
X131300000Y-131750000D02*
X130900000Y-132350000D01*
X131700000Y-132350000D02*
X131300000Y-131750000D01*
X131300000Y-132350000D02*
X131300000Y-132850000D01*
X130900000Y-132350000D02*
X131700000Y-132350000D01*
%TO.C,D10*%
X278200000Y-81350000D02*
X278200000Y-81750000D01*
X278200000Y-81750000D02*
X278750000Y-81750000D01*
X278200000Y-81750000D02*
X277650000Y-81750000D01*
X278200000Y-81750000D02*
X277800000Y-82350000D01*
X278600000Y-82350000D02*
X278200000Y-81750000D01*
X278200000Y-82350000D02*
X278200000Y-82850000D01*
X277800000Y-82350000D02*
X278600000Y-82350000D01*
%TO.C,D29*%
X89800000Y-140050000D02*
X89800000Y-140450000D01*
X89800000Y-140450000D02*
X90350000Y-140450000D01*
X89800000Y-140450000D02*
X89250000Y-140450000D01*
X89800000Y-140450000D02*
X89400000Y-141050000D01*
X90200000Y-141050000D02*
X89800000Y-140450000D01*
X89800000Y-141050000D02*
X89800000Y-141550000D01*
X89400000Y-141050000D02*
X90200000Y-141050000D01*
%TO.C,D15*%
X259200000Y-108450000D02*
X259200000Y-108850000D01*
X259200000Y-108850000D02*
X259750000Y-108850000D01*
X259200000Y-108850000D02*
X258650000Y-108850000D01*
X259200000Y-108850000D02*
X258800000Y-109450000D01*
X259600000Y-109450000D02*
X259200000Y-108850000D01*
X259200000Y-109450000D02*
X259200000Y-109950000D01*
X258800000Y-109450000D02*
X259600000Y-109450000D01*
%TO.C,D42*%
X188200000Y-114650000D02*
X188200000Y-115050000D01*
X188200000Y-115050000D02*
X188750000Y-115050000D01*
X188200000Y-115050000D02*
X187650000Y-115050000D01*
X188200000Y-115050000D02*
X187800000Y-115650000D01*
X188600000Y-115650000D02*
X188200000Y-115050000D01*
X188200000Y-115650000D02*
X188200000Y-116150000D01*
X187800000Y-115650000D02*
X188600000Y-115650000D01*
%TO.C,D7*%
X297000000Y-108150000D02*
X297000000Y-108550000D01*
X297000000Y-108550000D02*
X297550000Y-108550000D01*
X297000000Y-108550000D02*
X296450000Y-108550000D01*
X297000000Y-108550000D02*
X296600000Y-109150000D01*
X297400000Y-109150000D02*
X297000000Y-108550000D01*
X297000000Y-109150000D02*
X297000000Y-109650000D01*
X296600000Y-109150000D02*
X297400000Y-109150000D01*
%TO.C,D1*%
X317000000Y-87750000D02*
X317000000Y-87350000D01*
X317000000Y-87350000D02*
X316450000Y-87350000D01*
X317000000Y-87350000D02*
X317550000Y-87350000D01*
X317000000Y-87350000D02*
X317400000Y-86750000D01*
X316600000Y-86750000D02*
X317000000Y-87350000D01*
X317000000Y-86750000D02*
X317000000Y-86250000D01*
X317400000Y-86750000D02*
X316600000Y-86750000D01*
%TO.C,D2*%
X316100000Y-94050000D02*
X316100000Y-94450000D01*
X316100000Y-94450000D02*
X316650000Y-94450000D01*
X316100000Y-94450000D02*
X315550000Y-94450000D01*
X316100000Y-94450000D02*
X315700000Y-95050000D01*
X316500000Y-95050000D02*
X316100000Y-94450000D01*
X316100000Y-95050000D02*
X316100000Y-95550000D01*
X315700000Y-95050000D02*
X316500000Y-95050000D01*
%TO.C,D20*%
X222000000Y-107750000D02*
X222000000Y-107350000D01*
X222000000Y-107350000D02*
X221450000Y-107350000D01*
X222000000Y-107350000D02*
X222550000Y-107350000D01*
X222000000Y-107350000D02*
X222400000Y-106750000D01*
X221600000Y-106750000D02*
X222000000Y-107350000D01*
X222000000Y-106750000D02*
X222000000Y-106250000D01*
X222400000Y-106750000D02*
X221600000Y-106750000D01*
%TO.C,D43*%
X75500000Y-116750000D02*
X75500000Y-117150000D01*
X75500000Y-117150000D02*
X76050000Y-117150000D01*
X75500000Y-117150000D02*
X74950000Y-117150000D01*
X75500000Y-117150000D02*
X75100000Y-117750000D01*
X75900000Y-117750000D02*
X75500000Y-117150000D01*
X75500000Y-117750000D02*
X75500000Y-118250000D01*
X75100000Y-117750000D02*
X75900000Y-117750000D01*
%TO.C,D38*%
X170000000Y-98750000D02*
X170000000Y-98350000D01*
X170000000Y-98350000D02*
X169450000Y-98350000D01*
X170000000Y-98350000D02*
X170550000Y-98350000D01*
X170000000Y-98350000D02*
X170400000Y-97750000D01*
X169600000Y-97750000D02*
X170000000Y-98350000D01*
X170000000Y-97750000D02*
X170000000Y-97250000D01*
X170400000Y-97750000D02*
X169600000Y-97750000D01*
D13*
%TO.C,C3*%
X77570000Y-130400000D02*
X76430000Y-130400000D01*
X77570000Y-128600000D02*
X76430000Y-128600000D01*
D10*
%TO.C,D16*%
X281000000Y-131450000D02*
X281000000Y-131850000D01*
X281000000Y-131850000D02*
X281550000Y-131850000D01*
X281000000Y-131850000D02*
X280450000Y-131850000D01*
X281000000Y-131850000D02*
X280600000Y-132450000D01*
X281400000Y-132450000D02*
X281000000Y-131850000D01*
X281000000Y-132450000D02*
X281000000Y-132950000D01*
X280600000Y-132450000D02*
X281400000Y-132450000D01*
%TO.C,D44*%
X334750000Y-121000000D02*
X335150000Y-121000000D01*
X335150000Y-121000000D02*
X335150000Y-120450000D01*
X335150000Y-121000000D02*
X335150000Y-121550000D01*
X335150000Y-121000000D02*
X335750000Y-121400000D01*
X335750000Y-120600000D02*
X335150000Y-121000000D01*
X335750000Y-121000000D02*
X336250000Y-121000000D01*
X335750000Y-121400000D02*
X335750000Y-120600000D01*
%TO.C,D14*%
X259200000Y-89350000D02*
X259200000Y-89750000D01*
X259200000Y-89750000D02*
X259750000Y-89750000D01*
X259200000Y-89750000D02*
X258650000Y-89750000D01*
X259200000Y-89750000D02*
X258800000Y-90350000D01*
X259600000Y-90350000D02*
X259200000Y-89750000D01*
X259200000Y-90350000D02*
X259200000Y-90850000D01*
X258800000Y-90350000D02*
X259600000Y-90350000D01*
%TO.C,D40*%
X169100000Y-124350000D02*
X169100000Y-124750000D01*
X169100000Y-124750000D02*
X169650000Y-124750000D01*
X169100000Y-124750000D02*
X168550000Y-124750000D01*
X169100000Y-124750000D02*
X168700000Y-125350000D01*
X169500000Y-125350000D02*
X169100000Y-124750000D01*
X169100000Y-125350000D02*
X169100000Y-125850000D01*
X168700000Y-125350000D02*
X169500000Y-125350000D01*
%TO.C,D30*%
X132000000Y-74750000D02*
X132000000Y-74350000D01*
X132000000Y-74350000D02*
X131450000Y-74350000D01*
X132000000Y-74350000D02*
X132550000Y-74350000D01*
X132000000Y-74350000D02*
X132400000Y-73750000D01*
X131600000Y-73750000D02*
X132000000Y-74350000D01*
X132000000Y-73750000D02*
X132000000Y-73250000D01*
X132400000Y-73750000D02*
X131600000Y-73750000D01*
%TO.C,D28*%
X112200000Y-108550000D02*
X112200000Y-108950000D01*
X112200000Y-108950000D02*
X112750000Y-108950000D01*
X112200000Y-108950000D02*
X111650000Y-108950000D01*
X112200000Y-108950000D02*
X111800000Y-109550000D01*
X112600000Y-109550000D02*
X112200000Y-108950000D01*
X112200000Y-109550000D02*
X112200000Y-110050000D01*
X111800000Y-109550000D02*
X112600000Y-109550000D01*
%TO.C,D36*%
X150100000Y-108550000D02*
X150100000Y-108950000D01*
X150100000Y-108950000D02*
X150650000Y-108950000D01*
X150100000Y-108950000D02*
X149550000Y-108950000D01*
X150100000Y-108950000D02*
X149700000Y-109550000D01*
X150500000Y-109550000D02*
X150100000Y-108950000D01*
X150100000Y-109550000D02*
X150100000Y-110050000D01*
X149700000Y-109550000D02*
X150500000Y-109550000D01*
%TO.C,D41*%
X189000000Y-107750000D02*
X189000000Y-107350000D01*
X189000000Y-107350000D02*
X188450000Y-107350000D01*
X189000000Y-107350000D02*
X189550000Y-107350000D01*
X189000000Y-107350000D02*
X189400000Y-106750000D01*
X188600000Y-106750000D02*
X189000000Y-107350000D01*
X189000000Y-106750000D02*
X189000000Y-106250000D01*
X189400000Y-106750000D02*
X188600000Y-106750000D01*
%TO.C,D31*%
X131200000Y-81350000D02*
X131200000Y-81750000D01*
X131200000Y-81750000D02*
X131750000Y-81750000D01*
X131200000Y-81750000D02*
X130650000Y-81750000D01*
X131200000Y-81750000D02*
X130800000Y-82350000D01*
X131600000Y-82350000D02*
X131200000Y-81750000D01*
X131200000Y-82350000D02*
X131200000Y-82850000D01*
X130800000Y-82350000D02*
X131600000Y-82350000D01*
%TO.C,D8*%
X320000000Y-137050000D02*
X320000000Y-137450000D01*
X320000000Y-137450000D02*
X320550000Y-137450000D01*
X320000000Y-137450000D02*
X319450000Y-137450000D01*
X320000000Y-137450000D02*
X319600000Y-138050000D01*
X320400000Y-138050000D02*
X320000000Y-137450000D01*
X320000000Y-138050000D02*
X320000000Y-138550000D01*
X319600000Y-138050000D02*
X320400000Y-138050000D01*
%TO.C,D21*%
X221200000Y-114450000D02*
X221200000Y-114850000D01*
X221200000Y-114850000D02*
X221750000Y-114850000D01*
X221200000Y-114850000D02*
X220650000Y-114850000D01*
X221200000Y-114850000D02*
X220800000Y-115450000D01*
X221600000Y-115450000D02*
X221200000Y-114850000D01*
X221200000Y-115450000D02*
X221200000Y-115950000D01*
X220800000Y-115450000D02*
X221600000Y-115450000D01*
%TO.C,D35*%
X150200000Y-89550000D02*
X150200000Y-89950000D01*
X150200000Y-89950000D02*
X150750000Y-89950000D01*
X150200000Y-89950000D02*
X149650000Y-89950000D01*
X150200000Y-89950000D02*
X149800000Y-90550000D01*
X150600000Y-90550000D02*
X150200000Y-89950000D01*
X150200000Y-90550000D02*
X150200000Y-91050000D01*
X149800000Y-90550000D02*
X150600000Y-90550000D01*
%TO.C,D9*%
X279000000Y-74750000D02*
X279000000Y-74350000D01*
X279000000Y-74350000D02*
X278450000Y-74350000D01*
X279000000Y-74350000D02*
X279550000Y-74350000D01*
X279000000Y-74350000D02*
X279400000Y-73750000D01*
X278600000Y-73750000D02*
X279000000Y-74350000D01*
X279000000Y-73750000D02*
X279000000Y-73250000D01*
X279400000Y-73750000D02*
X278600000Y-73750000D01*
%TO.C,D22*%
X94000000Y-87750000D02*
X94000000Y-87350000D01*
X94000000Y-87350000D02*
X93450000Y-87350000D01*
X94000000Y-87350000D02*
X94550000Y-87350000D01*
X94000000Y-87350000D02*
X94400000Y-86750000D01*
X93600000Y-86750000D02*
X94000000Y-87350000D01*
X94000000Y-86750000D02*
X94000000Y-86250000D01*
X94400000Y-86750000D02*
X93600000Y-86750000D01*
%TO.C,D19*%
X240200000Y-124450000D02*
X240200000Y-124850000D01*
X240200000Y-124850000D02*
X240750000Y-124850000D01*
X240200000Y-124850000D02*
X239650000Y-124850000D01*
X240200000Y-124850000D02*
X239800000Y-125450000D01*
X240600000Y-125450000D02*
X240200000Y-124850000D01*
X240200000Y-125450000D02*
X240200000Y-125950000D01*
X239800000Y-125450000D02*
X240600000Y-125450000D01*
%TO.C,D11*%
X278100000Y-100250000D02*
X278100000Y-100650000D01*
X278100000Y-100650000D02*
X278650000Y-100650000D01*
X278100000Y-100650000D02*
X277550000Y-100650000D01*
X278100000Y-100650000D02*
X277700000Y-101250000D01*
X278500000Y-101250000D02*
X278100000Y-100650000D01*
X278100000Y-101250000D02*
X278100000Y-101750000D01*
X277700000Y-101250000D02*
X278500000Y-101250000D01*
%TO.C,D5*%
X298000000Y-82750000D02*
X298000000Y-82350000D01*
X298000000Y-82350000D02*
X297450000Y-82350000D01*
X298000000Y-82350000D02*
X298550000Y-82350000D01*
X298000000Y-82350000D02*
X298400000Y-81750000D01*
X297600000Y-81750000D02*
X298000000Y-82350000D01*
X298000000Y-81750000D02*
X298000000Y-81250000D01*
X298400000Y-81750000D02*
X297600000Y-81750000D01*
D13*
%TO.C,C4*%
X73430000Y-131600000D02*
X74570000Y-131600000D01*
X73430000Y-133400000D02*
X74570000Y-133400000D01*
D10*
%TO.C,D32*%
X131200000Y-100350000D02*
X131200000Y-100750000D01*
X131200000Y-100750000D02*
X131750000Y-100750000D01*
X131200000Y-100750000D02*
X130650000Y-100750000D01*
X131200000Y-100750000D02*
X130800000Y-101350000D01*
X131600000Y-101350000D02*
X131200000Y-100750000D01*
X131200000Y-101350000D02*
X131200000Y-101850000D01*
X130800000Y-101350000D02*
X131600000Y-101350000D01*
D13*
%TO.C,C1*%
X343570000Y-133900000D02*
X342430000Y-133900000D01*
X343570000Y-132100000D02*
X342430000Y-132100000D01*
D10*
%TO.C,D17*%
X241000000Y-98750000D02*
X241000000Y-98350000D01*
X241000000Y-98350000D02*
X240450000Y-98350000D01*
X241000000Y-98350000D02*
X241550000Y-98350000D01*
X241000000Y-98350000D02*
X241400000Y-97750000D01*
X240600000Y-97750000D02*
X241000000Y-98350000D01*
X241000000Y-97750000D02*
X241000000Y-97250000D01*
X241400000Y-97750000D02*
X240600000Y-97750000D01*
%TO.C,D39*%
X169200000Y-105350000D02*
X169200000Y-105750000D01*
X169200000Y-105750000D02*
X169750000Y-105750000D01*
X169200000Y-105750000D02*
X168650000Y-105750000D01*
X169200000Y-105750000D02*
X168800000Y-106350000D01*
X169600000Y-106350000D02*
X169200000Y-105750000D01*
X169200000Y-106350000D02*
X169200000Y-106850000D01*
X168800000Y-106350000D02*
X169600000Y-106350000D01*
%TO.C,D6*%
X297200000Y-88750000D02*
X297200000Y-89150000D01*
X297200000Y-89150000D02*
X297750000Y-89150000D01*
X297200000Y-89150000D02*
X296650000Y-89150000D01*
X297200000Y-89150000D02*
X296800000Y-89750000D01*
X297600000Y-89750000D02*
X297200000Y-89150000D01*
X297200000Y-89750000D02*
X297200000Y-90250000D01*
X296800000Y-89750000D02*
X297600000Y-89750000D01*
%TO.C,D34*%
X151000000Y-82750000D02*
X151000000Y-82350000D01*
X151000000Y-82350000D02*
X150450000Y-82350000D01*
X151000000Y-82350000D02*
X151550000Y-82350000D01*
X151000000Y-82350000D02*
X151400000Y-81750000D01*
X150600000Y-81750000D02*
X151000000Y-82350000D01*
X151000000Y-81750000D02*
X151000000Y-81250000D01*
X151400000Y-81750000D02*
X150600000Y-81750000D01*
%TD*%
D14*
%TO.C,MCU2*%
X70380000Y-82030000D03*
D15*
X70380000Y-84570000D03*
X70380000Y-87110000D03*
X70380000Y-89650000D03*
X70380000Y-92190000D03*
X70380000Y-94730000D03*
X70380000Y-97270000D03*
X70380000Y-99810000D03*
X70380000Y-102350000D03*
X70380000Y-104890000D03*
X70380000Y-107430000D03*
X70380000Y-109970000D03*
X85620000Y-109970000D03*
X85620000Y-107430000D03*
X85620000Y-104890000D03*
X85620000Y-102350000D03*
X85620000Y-99810000D03*
X85620000Y-97270000D03*
X85620000Y-94730000D03*
X85620000Y-92190000D03*
X85620000Y-89650000D03*
X85620000Y-87110000D03*
X85620000Y-84570000D03*
X85620000Y-82030000D03*
%TD*%
D14*
%TO.C,MCU1*%
X331380000Y-82030000D03*
D15*
X331380000Y-84570000D03*
X331380000Y-87110000D03*
X331380000Y-89650000D03*
X331380000Y-92190000D03*
X331380000Y-94730000D03*
X331380000Y-97270000D03*
X331380000Y-99810000D03*
X331380000Y-102350000D03*
X331380000Y-104890000D03*
X331380000Y-107430000D03*
X331380000Y-109970000D03*
X346620000Y-109970000D03*
X346620000Y-107430000D03*
X346620000Y-104890000D03*
X346620000Y-102350000D03*
X346620000Y-99810000D03*
X346620000Y-97270000D03*
X346620000Y-94730000D03*
X346620000Y-92190000D03*
X346620000Y-89650000D03*
X346620000Y-87110000D03*
X346620000Y-84570000D03*
X346620000Y-82030000D03*
%TD*%
M02*
